<svg width="64" height="64" viewBox="0 0 64 64" fill="none" xmlns="http://www.w3.org/2000/svg">
<path d="M31.9997 5.33398C21.6797 5.33398 13.333 13.6807 13.333 24.0007C13.333 38.0006 31.9997 58.6673 31.9997 58.6673C31.9997 58.6673 50.6663 38.0006 50.6663 24.0007C50.6663 13.6807 42.3197 5.33398 31.9997 5.33398Z" fill="#54B565"/>
<path d="M37.2711 29.9764C36.4757 30.6922 35.5984 30.9368 34.6395 30.7101C34.1852 30.6027 33.7596 30.4071 33.3629 30.1234C32.7804 29.7069 32.3471 29.1496 32.0629 28.4517C31.8452 27.9168 31.7375 27.3108 31.7399 26.6336C31.7422 26.0267 31.7894 25.5142 31.8813 25.0962C32.0928 24.1315 32.4456 23.2249 32.9394 22.3761C32.9399 22.3747 33.062 22.1858 33.3056 21.8092C33.7019 21.1971 33.9811 20.5079 34.1432 19.7416C34.3105 18.9509 34.3061 18.1908 34.1298 17.4613C33.9239 16.6088 33.4823 15.9634 32.8051 15.5252C32.4083 15.2683 31.9694 15.1088 31.4882 15.0466C30.6494 14.9382 29.866 15.1529 29.1379 15.6906C29.0267 15.7726 28.9397 15.8633 28.8771 15.9627C28.8587 15.9462 28.8601 15.9231 28.8813 15.8934C29.3455 15.2521 29.9463 14.8221 30.6838 14.6034C31.1291 14.4715 31.5808 14.4312 32.0389 14.4825C32.4842 14.5325 32.9081 14.6642 33.3105 14.8777C34.1234 15.3103 34.6425 15.995 34.8678 16.9318C35.1449 18.0854 35.0367 19.207 34.5433 20.2965C34.4722 20.4535 34.2914 20.7659 34.0012 21.2338C33.3282 22.3177 32.8631 23.4756 32.6058 24.7074C32.4941 25.2427 32.4411 25.82 32.4467 26.4392C32.4505 26.8506 32.5156 27.266 32.6418 27.6854C32.7696 28.1091 32.9458 28.4859 33.1706 28.8157C33.6979 29.589 34.4345 30.0692 35.3803 30.2563C36.0047 30.3798 36.635 30.2865 37.2711 29.9764Z" fill="#ABBDC2"/>
<path d="M38.614 26.3654C38.6423 26.3635 38.6534 26.376 38.6472 26.4029C38.5026 27.0466 38.2342 27.6326 37.8421 28.1609C37.6748 28.3857 37.4705 28.5692 37.2293 28.7115C37.1996 28.729 37.184 28.7205 37.1826 28.6861C37.3009 28.5866 37.382 28.5018 37.4258 28.4316C37.8098 27.8171 38.0754 27.1543 38.2224 26.4432C38.2245 26.4329 38.2297 26.4235 38.2372 26.4164C38.2447 26.4093 38.2541 26.4048 38.2641 26.4036L38.614 26.3654Z" fill="#ABBDC2"/>
<path d="M29.6405 29.5664L29.4991 29.7785C29.501 29.7511 29.4883 29.7384 29.4609 29.7403C29.4991 29.6559 29.559 29.598 29.6405 29.5664Z" fill="white"/>
<path d="M29.4605 29.7404C29.4878 29.7385 29.5005 29.7513 29.4987 29.7786C29.108 30.3742 28.5633 31.0374 28.0548 31.5374C27.9549 31.5765 27.9197 31.4609 27.759 31.4214C27.7303 31.4138 27.7277 31.4011 27.7513 31.3832C28.3743 30.8936 28.944 30.346 29.4605 29.7404Z" fill="#ABBDC2"/>
<path d="M38.2605 33.291C38.2959 33.2971 38.3065 33.3143 38.2923 33.3426C38.2796 33.3676 38.2723 33.3829 38.2704 33.3886C38.0829 33.9936 37.8044 34.5528 37.4349 35.066C37.4019 35.1117 37.3758 35.11 37.3564 35.061C37.6062 34.5342 37.7669 33.9743 37.8385 33.3815C37.8409 33.362 37.8512 33.3439 37.8678 33.3304C37.8844 33.317 37.9061 33.309 37.929 33.308L38.2605 33.291Z" fill="#ABBDC2"/>
<path d="M27.1624 15.0723C27.1719 15.0751 27.1777 15.0807 27.1801 15.0892C27.1816 15.094 27.1809 15.1 27.1781 15.1064C27.1754 15.1128 27.1707 15.1193 27.1646 15.1253C26.1151 16.1389 25.465 17.3755 25.2143 18.8349C25.1375 19.2807 25.1019 19.7218 25.1076 20.1582C25.1132 20.5894 25.1679 21.026 25.2716 21.468C25.4275 22.1311 25.6705 22.7731 26.0003 23.3942C26.2793 23.9187 26.5585 24.3883 26.838 24.803C27.1655 25.2894 27.4723 25.7875 27.7583 26.2974C28.0566 26.8285 28.2397 27.2601 28.3076 27.5923C28.4409 28.246 28.3594 28.897 28.063 29.5454C27.9103 29.8791 27.7355 30.2 27.5385 30.5082C27.3707 30.7707 27.1523 31.0614 26.8832 31.3805C26.0109 32.4163 25.0074 33.3625 23.8727 34.2193C23.8562 34.2318 23.8436 34.2486 23.8361 34.2678C23.8286 34.287 23.8266 34.3079 23.8302 34.3281C23.8529 34.4553 23.9071 34.5828 23.9928 34.7105C23.9952 34.7141 23.9983 34.7171 24.002 34.7193C24.0057 34.7215 24.0098 34.7229 24.0141 34.7233C24.0184 34.7238 24.0227 34.7233 24.0269 34.722C24.031 34.7206 24.0348 34.7184 24.0381 34.7155C24.5032 34.2838 25.0204 34.0341 25.5896 33.9662C25.837 33.9365 26.0948 34.0027 26.363 34.1648C26.6132 34.3161 26.9505 34.4297 27.2059 34.7105C27.4085 34.9334 27.48 35.1017 27.4848 35.1065C27.7986 35.4377 28.0561 35.8208 28.362 36.1596C28.6278 36.4537 28.9086 36.7326 29.2046 36.9965C30.058 37.7576 31.0665 38.2392 32.23 38.4414C32.7813 38.5371 33.3197 38.5745 33.8452 38.5538C34.3612 38.5335 34.828 38.4737 35.2455 38.3742C36.0513 38.1834 36.7544 37.8024 37.3548 37.2312C37.4429 37.1469 37.5141 37.0953 37.5683 37.0764C36.9368 38.1716 36.0365 38.8844 34.8673 39.2147C33.8348 39.5064 32.7432 39.5512 31.5924 39.349C30.4383 39.1464 29.456 38.6252 28.6454 37.7854C28.2157 37.3401 27.8464 36.9315 27.5378 36.5597C27.181 36.129 26.8276 35.7402 26.4775 35.3934C26.0736 34.9937 25.5901 34.8583 25.027 34.9869C24.469 35.1142 23.962 35.3641 23.5058 35.7369C23.5024 35.7397 23.4984 35.7417 23.4941 35.7428C23.4898 35.7439 23.4853 35.744 23.481 35.7431C23.4766 35.7422 23.4726 35.7404 23.469 35.7377C23.4655 35.7351 23.4626 35.7316 23.4606 35.7277L23.0145 34.8816C23.001 34.8559 22.9967 34.8263 23.0025 34.798C23.0083 34.7696 23.0238 34.7442 23.0463 34.7261C24.3046 33.7087 25.4513 32.5998 26.4867 31.3995C26.7067 31.1441 26.915 30.8616 27.1115 30.552C27.3641 30.1543 27.5295 29.8463 27.6078 29.6281C27.8113 29.0598 27.7703 28.4722 27.4848 27.8652C27.2708 27.4095 27.0467 27.0016 26.8125 26.6416C26.632 26.3645 26.5409 26.2243 26.539 26.221C26.2925 25.8285 26.0472 25.4352 25.8031 25.0413C25.5025 24.5559 25.2409 24.0502 25.0185 23.5243C24.6396 22.6271 24.4589 21.6662 24.4763 20.6417C24.4923 19.71 24.6365 18.8342 24.9089 18.0143C25.3227 16.773 26.0739 15.7923 27.1624 15.0723Z" fill="#ABBDC2"/>
<path d="M37.1829 28.6855C38.057 28.1886 38.4998 26.9254 38.7285 25.9372C38.9028 25.8731 39.1165 25.8788 39.2654 25.9202C39.2747 25.9228 39.2828 25.9288 39.2881 25.9372C39.2934 25.9455 39.2957 25.9555 39.2944 25.9655C39.1977 26.6747 39.0373 27.3403 38.813 27.9624C38.5151 28.7885 38.0013 29.4595 37.2713 29.9755C36.6351 30.2856 36.0048 30.3789 35.3804 30.2555C34.4346 30.0684 33.6981 29.5882 33.1707 28.8149C32.946 28.485 32.7697 28.1082 32.642 27.6846C32.5157 27.2652 32.4507 26.8498 32.4469 26.4384C32.4413 25.8192 32.4943 25.2419 32.606 24.7065C32.8633 23.4747 33.3284 22.3168 34.0013 21.233C34.2916 20.765 34.4723 20.4526 34.5435 20.2957C35.0369 19.2061 35.145 18.0846 34.8679 16.931C34.6427 15.9941 34.1236 15.3094 33.3107 14.8768C32.5067 14.4503 31.5585 14.3434 30.684 14.6025C29.3167 15.0079 28.455 16.1679 28.3471 17.5672C28.2531 18.7824 28.5433 19.9554 29.1593 20.9969C29.4821 21.544 29.7283 21.9808 29.8979 22.3074C30.4548 23.3815 30.8899 24.5737 30.9342 25.7916C30.9641 26.6189 30.8647 27.4348 30.5051 28.1886C29.8926 29.5458 28.8075 30.5527 27.7512 31.3829C27.7276 31.4008 27.7302 31.4136 27.7589 31.4211C27.9574 31.47 28.152 31.4536 28.3506 31.4847C28.4604 31.5017 28.5162 31.5104 28.5181 31.5109C29.4974 31.7328 30.3107 32.2293 30.9582 33.0002C31.7077 33.8935 32.4036 34.8163 33.4288 35.4121C34.6253 36.1071 36.4302 36.3093 37.3568 35.0622C37.7389 34.612 38.057 33.9051 38.2609 33.2922L38.4405 32.4319C38.4426 32.4212 38.4481 32.4116 38.456 32.4048C38.4639 32.3979 38.4736 32.3943 38.4836 32.3945L39.03 32.4086C39.0452 32.409 39.0597 32.4156 39.0706 32.4272C39.0815 32.4387 39.088 32.4543 39.0887 32.4708C39.0971 32.7031 39.0936 32.9232 39.0781 33.131C39.0653 33.3054 39.0422 33.5236 39.0088 33.7856C38.8523 35.0188 38.3724 36.1159 37.5689 37.0768C37.5147 37.0956 37.4435 37.1472 37.3554 37.2316C36.755 37.8027 36.0519 38.1837 35.2461 38.3746C34.8286 38.474 34.3618 38.5339 33.8458 38.5541C33.3204 38.5749 32.782 38.5374 32.2306 38.4417C31.0671 38.2396 30.0586 37.7579 29.2052 36.9969C28.9093 36.733 28.6284 36.454 28.3626 36.1599C27.7563 35.4883 27.1494 34.6402 26.3636 34.1652C26.0954 34.0031 25.8377 33.9368 25.5903 33.9665C25.021 34.0344 24.5038 34.2842 24.0387 34.7158C24.0355 34.7188 24.0316 34.721 24.0275 34.7223C24.0234 34.7237 24.019 34.7241 24.0147 34.7237C24.0104 34.7232 24.0063 34.7218 24.0026 34.7196C23.9989 34.7174 23.9958 34.7144 23.9934 34.7109C23.9077 34.5832 23.8535 34.4557 23.8309 34.3284C23.8272 34.3082 23.8292 34.2874 23.8367 34.2682C23.8442 34.2489 23.8569 34.2321 23.8733 34.2196C25.008 33.3629 26.0116 32.4166 26.8838 31.3808C27.357 30.8198 27.7578 30.214 28.0636 29.5458C28.36 28.8973 28.4415 28.2463 28.3082 27.5927C28.0636 26.6597 27.3479 25.6347 26.8386 24.8034C25.6329 23.0142 24.7678 21.233 25.2149 18.8353C25.6069 16.7334 26.4793 15.7739 27.1631 15.0726C28.4435 13.7593 30.2186 13.2727 31.9691 13.3401C33.1161 13.3844 34.2082 13.6716 35.2454 14.2017C36.2039 14.6914 36.9513 15.3822 37.4876 16.2743C38.1993 17.4578 38.3724 18.8679 38.1372 20.2179C37.9742 21.1538 37.6693 22.0624 37.2225 22.9436C36.9058 23.5689 36.6431 24.0663 36.4344 24.4358C36.0574 25.1045 35.7428 25.7263 35.4907 26.3012C35.3781 26.5585 35.3022 26.8519 35.2631 27.1813C35.2061 27.6587 35.3507 28.0597 35.6971 28.3844C36.1259 28.7873 36.7846 28.912 37.1829 28.6855Z" fill="white"/>
</svg>
