<svg width="1280" height="720" viewBox="0 0 1280 720" fill="none" xmlns="http://www.w3.org/2000/svg">
<g opacity="0.6">
<g clip-path="url(#clip0_4740_19420)">
<path d="M696.326 -62.8727C696.326 -62.8727 653.433 -75.1161 600.803 -77.1328C548.498 -79.4904 486.439 -72.2866 448.447 -33.068C447.798 -32.3862 447.473 -32.0453 446.824 -31.3636C394.241 23.8602 354.817 128.011 291.848 194.143C264.908 222.436 233.8 243.512 196.044 251.109C135.768 263.26 105.483 249.372 79.9372 225.048C60.1822 206.238 42.9277 180.709 17.0418 156.061C5.46125 145.035 -8.11486 134.058 -24.3357 123.812C-81.7738 87.9698 -134.797 97.278 -170.825 135.117C-197.441 163.069 -215.025 206.771 -218.432 258.773C-226.127 381.436 -201.486 547.887 -201.486 547.887L-200.155 547.854C-200.155 547.854 -200.544 545.534 -200.997 540.554C-205.464 507.052 -223.835 366.07 -216.761 259.064C-213.354 207.063 -196.095 163.701 -169.804 136.089C-134.099 98.5919 -81.7418 89.3001 -24.6442 124.818C-8.42343 135.064 5.15263 146.041 16.7332 157.068C42.6191 181.715 59.8736 207.244 79.6287 226.054C105.515 250.702 136.125 264.25 196.742 252.423C235.162 244.81 265.929 223.409 292.87 195.116C356.164 128.643 395.588 24.4923 447.846 -30.3906C448.495 -31.0724 448.819 -31.4133 449.469 -32.0951C486.812 -70.6319 548.53 -78.16 600.836 -75.8024C627.15 -74.794 650.869 -71.0586 667.919 -67.8226C676.615 -66.0424 683.639 -64.5534 688.328 -63.339C693.016 -62.1246 695.693 -61.5258 695.693 -61.5258L696.326 -62.8727Z" fill="white"/>
<path d="M-222.001 525.104C-222.001 525.104 -222.065 522.443 -222.518 517.462C-224.666 483.57 -233.415 341.349 -216.836 242.094C-209.246 197.976 -192.833 160.959 -169.462 136.415C-132.784 97.8946 -79.405 89.5758 -17.8636 129.975C0.74143 142.491 16.0206 155.09 28.9635 167.414C49.0592 186.548 64.4824 205.133 80.1502 220.052C109.783 248.267 141.107 263.794 206.592 246.854C239.999 238.367 267.489 219.045 290.859 194.501C354.477 127.687 390.479 19.6286 443.29 -39.9273C444.264 -40.9499 445.238 -41.9726 446.211 -42.9952C483.214 -81.8564 541.558 -91.2973 590.49 -90.8524C615.118 -90.8004 637.149 -88.0213 653.518 -85.4339C661.533 -84.3024 667.892 -82.7968 672.564 -82.2476C676.912 -81.3575 679.589 -80.7587 679.589 -80.7587L679.897 -81.7647C679.897 -81.7647 640.054 -91.7544 590.798 -91.8585C541.542 -91.9624 482.857 -82.8459 445.53 -43.6438C444.557 -42.6212 443.583 -41.5985 442.609 -40.5759C389.473 19.3209 353.147 127.72 290.178 193.853C266.808 218.397 239.643 237.377 206.576 246.188C141.091 263.129 110.773 247.91 81.14 219.694C65.4722 204.776 50.0489 186.191 29.9533 167.056C16.6697 154.408 1.3906 141.809 -17.2145 129.294C-79.0965 88.5698 -133.141 96.905 -170.144 135.766C-193.838 160.651 -210.252 197.668 -217.842 241.787C-236.729 355.742 -222.991 525.461 -222.991 525.461L-222.001 525.104Z" fill="white"/>
<path d="M-243.506 502.675C-243.506 502.675 -243.571 500.014 -243.358 495.016C-243.526 460.409 -242.314 317.275 -215.906 225.43C-205.462 189.227 -189.894 158.554 -169.77 137.419C-131.794 97.5354 -77.4084 89.5244 -11.0666 135.795C12.291 152.186 30.9921 168.693 47.0005 183.935C56.878 193.34 65.4092 202.113 73.9243 210.221C92.9981 228.383 109.98 242.603 131.767 249.049C153.554 255.495 179.821 254.508 216.799 242.271C245.194 232.911 269.081 216.009 289.529 194.533C352.823 128.06 384.445 17.7805 437.453 -47.4378C439.709 -50.4893 441.981 -52.8754 444.578 -55.6025C480.931 -93.7819 535.577 -104.795 581.134 -106.263C604.075 -107.167 624.419 -105.344 639.102 -103.713C646.451 -102.565 652.453 -102.049 656.801 -101.159C660.808 -100.593 663.161 -99.6534 663.485 -99.9943L663.794 -101C663.794 -101 517.593 -132.967 443.896 -56.2512C441.3 -53.5241 439.028 -51.1379 436.772 -48.0865C383.78 17.7971 352.158 128.076 288.848 193.884C268.724 215.019 245.162 231.581 216.767 240.941C179.789 253.177 153.846 253.824 132.4 247.702C110.938 240.915 93.9718 227.36 74.898 209.199C66.3829 201.091 57.8518 192.318 47.9743 182.913C31.9659 167.67 13.2646 151.163 -10.0928 134.772C-77.0999 88.5184 -131.826 96.205 -170.451 136.771C-190.9 158.247 -206.468 188.919 -216.911 225.122C-246.99 330.371 -244.172 502.691 -244.172 502.691L-243.506 502.675Z" fill="white"/>
<path d="M-265.013 480.249C-265.013 480.249 -265.077 477.588 -264.54 472.25C-262.388 437.252 -251.554 292.879 -215.641 208.785C-203.335 180.856 -188.937 156.868 -172.058 139.142C-151.934 118.007 -127.951 105.096 -100.338 104.74C-72.4 104.044 -40.5072 115.563 -4.27086 141.617C47.2126 178.94 76.6809 214.148 107.452 234.348C138.222 254.547 170.295 259.739 226.324 237.044C250.387 227.458 270.331 212.651 287.858 194.243C351.152 127.77 377.745 15.9522 430.268 -55.5773C433.806 -60.6575 438.026 -65.089 441.921 -69.1796C477.3 -106.336 528.248 -118.921 570.431 -122.302C591.36 -123.821 610.342 -123.296 623.678 -122.297C630.346 -121.798 636.024 -120.941 639.691 -120.699C643.698 -120.133 645.369 -119.842 645.369 -119.842L646.683 -120.541C646.683 -120.541 513.638 -145.181 441.905 -69.8449C437.685 -65.4133 434.131 -60.9984 430.252 -56.2425C377.404 15.6278 350.812 127.446 287.842 193.578C270.639 211.645 250.695 226.452 226.632 236.037C170.604 258.733 139.196 253.525 108.425 233.325C77.6546 213.125 48.1864 177.917 -3.2971 140.595C-39.8741 114.216 -71.7669 102.697 -100.37 103.41C-128.648 103.782 -152.631 116.693 -173.08 138.169C-190.283 156.236 -204.681 180.223 -216.647 208.477C-257.918 305.019 -266.019 479.941 -266.343 480.282L-265.013 480.249Z" fill="white"/>
<path d="M-286.179 458.145C-286.179 458.145 -285.919 455.144 -285.366 450.471C-280.893 415.082 -260.439 269.472 -214.696 192.786C-202.863 172.856 -190.625 155.911 -177.317 141.935C-154.92 118.414 -129.964 104.48 -100.355 104.075C-70.7458 103.67 -36.8094 117.135 3.51427 147.081C55.711 186.382 87.4833 220.534 119.536 238.705C151.914 256.536 184.232 258.06 237.519 232.105C257.25 222.295 273.916 209.566 288.198 194.567C352.141 127.412 372.731 15.0784 425.094 -63.1031C430.239 -70.5529 435.4 -77.3375 441.243 -83.4735C475.649 -119.608 522.573 -133.423 561.058 -138.376C580.3 -140.852 597.27 -140.942 609.6 -140.251C615.928 -140.075 620.6 -139.526 624.267 -139.285C627.609 -138.702 629.604 -138.752 629.604 -138.752L629.913 -139.758C629.913 -139.758 510.023 -157.072 440.562 -84.1221C434.719 -77.9862 429.233 -70.8607 424.088 -63.4109C371.401 15.1115 350.811 127.445 287.192 194.259C272.911 209.258 256.245 221.987 236.838 231.456C183.55 257.411 151.898 255.87 119.861 238.365C88.1485 220.518 56.3762 186.365 3.83886 146.74C-36.5008 116.129 -70.7618 103.005 -100.711 103.085C-130.32 103.49 -155.942 117.441 -178.663 141.303C-191.971 155.279 -204.209 172.224 -216.042 192.154C-268.505 279.989 -287.51 458.178 -287.51 458.178L-286.179 458.145Z" fill="white"/>
<path d="M-308.01 436.058C-308.01 436.058 -307.408 433.381 -306.531 428.367C-299.738 392.588 -269.663 245.739 -214.415 176.804C-206.657 167.292 -199.208 158.787 -191.418 150.606C-164.153 121.971 -136.615 104.645 -104.702 103.184C-72.4486 102.048 -36.1439 117.118 10.3266 153.566C63.2366 194.847 96.9884 228.284 130.308 243.761C163.627 259.238 196.854 257.079 247.401 227.865C262.833 219.16 275.88 208.185 287.565 195.913C352.482 127.736 366.404 14.9025 418.607 -69.931C425.002 -80.74 432.436 -89.9108 440.226 -98.0921C473.333 -132.863 516.575 -147.585 551.361 -154.109C568.592 -157.201 584.216 -157.923 595.199 -157.864C600.521 -157.996 604.852 -157.771 608.178 -157.854C611.18 -157.596 612.851 -157.305 612.851 -157.305L612.819 -158.636C612.819 -158.636 506.068 -169.288 439.204 -99.065C431.414 -90.8837 423.98 -81.7129 417.585 -70.9039C365.399 14.5948 351.136 127.104 286.543 194.941C274.858 207.212 261.47 217.863 246.379 226.892C195.833 256.106 163.27 258.249 130.616 242.755C97.297 227.278 63.5611 194.506 10.6352 152.56C-35.8354 116.112 -73.1458 100.734 -105.399 101.87C-137.653 103.007 -165.515 120.674 -192.78 149.308C-200.246 157.149 -208.02 165.995 -215.778 175.507C-279.432 254.635 -309.356 435.426 -309.681 435.767L-308.01 436.058Z" fill="white"/>
<path d="M-329.516 413.631C-329.516 413.631 -328.915 410.953 -327.697 406.264C-319.201 372.106 -281.34 230.721 -219.994 166.294C-218.046 164.248 -216.099 162.203 -214.151 160.158C-177.052 125.288 -145.636 103.206 -111.078 101.014C-75.8553 98.8047 -36.8418 115.804 16.7974 159.728C70.096 203.329 106.477 235.369 141.078 248.818C176.004 261.925 209.476 256.099 257.282 223.625C268.414 216.026 278.524 207.454 287.613 197.909C354.152 128.027 360.433 15.717 412.443 -77.099C420.414 -91.608 429.778 -103.489 439.84 -114.057C471.325 -147.123 510.884 -162.752 541.663 -169.842C557.223 -173.225 571.16 -174.903 580.797 -175.476C585.778 -175.933 589.444 -175.691 592.105 -175.758C594.766 -175.824 596.096 -175.857 596.096 -175.857L596.064 -177.188C596.064 -177.188 502.437 -181.844 438.819 -115.03C428.757 -104.462 419.408 -91.9157 411.097 -77.731C359.087 15.0849 352.481 127.736 286.591 196.936C277.827 206.14 267.717 214.712 256.585 222.311C208.779 254.785 175.972 260.595 141.711 247.471C107.45 234.347 71.4104 202.63 17.7712 158.706C-35.5275 115.106 -75.2221 97.4578 -110.77 100.007C-146.317 102.557 -177.734 124.639 -214.832 159.509C-216.78 161.554 -218.727 163.6 -220.675 165.645C-291.434 239.958 -330.506 413.988 -330.506 413.988L-329.516 413.631Z" fill="white"/>
<path d="M-350.682 391.527C-350.682 391.527 -349.741 389.174 -348.847 384.825C-339.59 354.642 -298.992 230.162 -236.996 165.052C-229.531 157.212 -221.384 150.02 -213.206 144.159C-170.349 113.472 -138.155 96.0297 -102.836 97.8122C-67.5168 99.5946 -29.7537 119.953 24.5988 165.856C78.6107 211.436 116.971 242.762 153.163 253.175C189.031 263.929 223.072 254.096 268.478 218.686C275.991 212.841 282.499 206.689 288.666 200.212C358.127 127.262 355.452 16.1731 407.27 -84.6253C416.799 -103.5 428.404 -119.097 440.738 -132.051C470.6 -163.413 505.502 -178.926 532.599 -186.922C546.147 -190.921 558.413 -192.89 566.704 -194.095C571.019 -194.536 574.345 -194.618 576.666 -195.009C578.986 -195.4 579.991 -195.092 579.991 -195.092L579.959 -196.422C579.959 -196.422 499.44 -195.747 439.716 -133.024C427.382 -120.07 415.777 -104.472 405.923 -85.2574C354.121 16.2062 356.456 126.971 287.644 199.239C281.477 205.716 274.969 211.868 267.456 217.713C222.391 253.447 188.999 262.599 153.472 252.169C117.604 241.415 79.5845 210.413 25.5726 164.834C-28.4393 119.255 -66.8837 98.2477 -102.527 96.8061C-138.171 95.3645 -170.705 112.482 -213.562 143.169C-221.741 149.031 -229.888 156.223 -237.678 164.404C-309.086 239.399 -352.013 391.56 -352.013 391.56L-350.682 391.527Z" fill="white"/>
<path d="M-372.187 369.1C-372.187 369.1 -371.57 367.087 -369.995 363.387C-360.642 337.196 -319.01 227.999 -257.014 162.889C-243.057 148.231 -228.046 135.876 -211.949 127.155C-163.659 100.992 -130.023 88.1729 -94.948 93.6223C-59.8734 99.0716 -22.6793 123.438 32.0458 170.996C86.7709 218.554 127.095 248.5 164.569 256.885C202.044 265.269 236.33 251.769 278.654 212.775C282.24 209.69 285.486 206.282 288.732 202.873C362.737 125.15 350.132 16.3058 401.06 -93.7888C412.457 -118.034 426.286 -138.014 441.217 -153.695C468.482 -182.33 499.053 -198.067 522.807 -206.646C534.684 -210.936 544.614 -213.18 551.899 -214.693C555.55 -215.116 558.195 -215.848 560.19 -215.898C562.186 -215.947 563.175 -216.305 563.175 -216.305L563.143 -217.635C563.143 -217.635 495.374 -212.619 439.854 -154.992C424.924 -139.311 410.754 -119.656 399.373 -94.7452C347.78 15.366 360.385 124.211 287.029 201.251C283.783 204.66 280.862 207.728 277.275 210.812C234.951 249.806 200.99 262.966 164.181 254.565C127.047 246.504 86.7229 216.559 32.3223 168.659C-22.4028 121.101 -59.5969 96.7351 -95.0121 90.9614C-130.752 85.5287 -164.388 98.3476 -213.003 124.852C-229.1 133.573 -244.111 145.927 -258.068 160.586C-328.828 234.899 -372.9 367.121 -373.225 367.461L-372.187 369.1Z" fill="white"/>
<path d="M-394.018 347.014C-394.018 347.014 -393.401 345.002 -391.81 341.967C-382.377 319.102 -341.058 224.555 -280.686 161.15C-259.912 139.333 -236.723 121.117 -212.01 110.85C-157.962 88.8699 -123.223 80.35 -87.7121 90.1149C-52.5414 99.5554 -16.5975 127.281 38.8408 176.818C93.614 226.372 136.242 255.262 174.658 261.293C213.415 267.649 247.621 250.823 287.22 209.234C287.869 208.553 288.194 208.212 288.843 207.53C328.426 165.277 342.588 117.666 352.663 66.1637C363.062 14.3206 369.699 -41.7553 394.896 -100.956C408.453 -132.244 425.171 -156.622 442.699 -175.03C467.367 -200.938 493.298 -215.894 513.402 -224.049C523.283 -228.289 531.542 -230.825 537.821 -232.645C540.791 -233.717 543.111 -234.108 544.766 -234.482C546.421 -234.856 547.086 -234.873 547.086 -234.873L547.054 -236.203C547.054 -236.203 491.338 -228.159 442.001 -176.344C424.149 -157.595 407.091 -133.541 393.875 -101.929C368.352 -42.3873 362.056 14.0128 351.657 65.856C341.258 117.699 327.745 164.628 288.162 206.881C287.513 207.563 287.188 207.904 286.539 208.586C247.264 249.833 213.043 265.995 175.291 259.946C137.2 253.574 94.9123 225.008 40.1392 175.454C-14.9746 125.576 -51.243 98.1919 -86.7543 88.427C-122.59 79.0031 -157.669 87.1986 -211.718 109.179C-236.771 119.121 -260.285 137.679 -281.058 159.495C-350.195 232.104 -394.05 345.684 -394.05 345.684L-394.018 347.014Z" fill="white"/>
<path d="M-415.183 324.91C-415.183 324.91 -414.55 323.563 -413.284 320.869C-404.436 301.346 -364.792 220.154 -307.016 159.476C-279.102 130.159 -246.419 105.383 -211.388 95.1923C-152.246 77.4115 -115.725 73.8392 -80.4583 87.271C-45.1915 100.703 -10.1733 131.446 45.6538 183.303C97.7342 231.593 139.989 258.828 177.757 265.542C215.524 272.255 249.112 257.441 282.869 221.989C288.062 216.534 293.24 210.415 298.741 203.955C335.584 158.441 346.095 111.255 353.525 60.4839C360.614 9.38882 364.606 -45.9555 388.75 -107.46C404.094 -147.445 424.351 -176.903 444.8 -198.379C466.222 -220.878 487.528 -234.388 503.641 -242.444C511.527 -246.634 518.456 -249.136 523.08 -250.583C525.384 -251.638 527.039 -252.012 528.694 -252.386C529.684 -252.744 530.674 -253.101 530.674 -253.101L530.317 -254.091C530.317 -254.091 486.963 -244.025 444.118 -199.028C423.67 -177.552 403.413 -148.094 387.744 -107.767C363.617 -45.598 359.949 9.4054 352.86 60.5005C345.771 111.596 335.243 158.117 298.401 203.63C292.899 210.091 287.722 216.21 282.528 221.664C248.772 257.117 215.508 271.59 178.406 264.86C140.979 258.471 99.0485 230.895 46.9681 182.605C-8.85897 130.748 -43.8771 100.004 -79.4845 86.2483C-115.092 72.4923 -151.938 76.4055 -211.08 94.1862C-246.435 104.718 -279.118 129.494 -307.032 158.811C-373.247 228.352 -415.524 324.586 -415.848 324.927L-415.183 324.91Z" fill="white"/>
<path d="M-436.69 302.483C-436.69 302.483 -434.482 297.436 -429.693 288.996C-415.668 263.354 -382.115 205.609 -335.375 156.522C-299.995 119.365 -257.495 87.6882 -210.799 78.2048C-153.509 66.4606 -117.248 65.89 -85.0147 77.7333C-53.1059 89.9175 -24.5432 115.164 17.6917 155.379C28.2504 165.433 39.831 176.46 52.4333 188.459L53.1145 189.108C102.843 236.458 145.082 263.028 182.509 269.417C219.935 275.806 252.89 262.339 283.726 229.954C292.165 221.091 300.897 210.557 308.931 198.709C343.033 149.936 350.234 103.497 354.338 52.8093C358.458 2.78657 359.481 -51.4854 382.23 -115.617C399.979 -166.312 424.423 -201.532 447.144 -225.395C464.671 -243.802 481.028 -255.525 493.507 -262.492C499.413 -265.967 504.671 -268.761 507.965 -270.174C511.259 -271.587 513.238 -272.302 513.238 -272.302L513.206 -273.633C513.206 -273.633 481.517 -262.859 446.462 -226.043C423.417 -201.84 398.973 -166.62 381.224 -115.925C358.475 -51.7931 357.452 2.47884 353.348 53.1668C349.228 103.189 342.027 149.628 307.925 198.401C299.891 210.249 291.484 220.443 283.045 229.306C252.209 261.69 219.919 275.141 182.817 268.411C145.39 262.022 103.492 235.776 53.7637 188.426L53.4231 188.102C40.8208 176.102 29.2402 165.076 18.6815 155.022C-23.5535 114.807 -52.1161 89.5601 -84.6902 77.3924C-117.264 65.2248 -153.525 65.7954 -211.14 77.8805C-258.16 87.7048 -300.985 119.722 -336.365 156.879C-398.685 222.329 -438.004 303.181 -438.004 303.181L-436.69 302.483Z" fill="white"/>
<path d="M-458.195 280.057C-458.195 280.057 -455.971 275.675 -451.816 268.582C-439.025 246.965 -408.574 198.615 -365.728 153.618C-323.533 109.303 -269.932 68.697 -210.209 61.2186C-107.686 48.3475 -71.9987 65.4295 -15.799 118.941C4.97783 138.725 28.8842 164.087 59.8952 194.265C61.9388 196.211 63.9824 198.157 65.6855 199.779C112.348 244.21 153.193 268.152 189.938 273.892C226.343 279.309 258.974 266.182 287.537 236.184C298.573 224.594 309.204 210.019 319.463 193.788C350.823 141.756 354.699 95.4001 355.834 45.7845C356.968 -3.831 355.362 -56.7063 376.717 -123.466C397.455 -188.213 426.736 -229.877 451.08 -255.443C464.063 -269.079 475.828 -278.025 484.007 -283.886C488.258 -286.987 491.536 -289.066 493.84 -290.122C496.145 -291.177 497.459 -291.876 497.459 -291.876L497.102 -292.865C497.102 -292.865 476.365 -283.363 450.398 -256.092C425.73 -230.185 396.449 -188.521 376.052 -123.449C354.697 -56.6897 356.319 -3.14924 355.509 46.1254C354.374 95.741 350.823 141.756 319.447 193.123C309.529 209.678 298.557 223.929 287.521 235.519C259.282 265.176 227.317 278.286 191.253 273.194C154.848 267.778 114.003 243.836 67.6811 199.729C65.6374 197.783 63.9344 196.161 61.8908 194.215C30.8798 164.038 7.31402 138.999 -13.8034 118.892C-70.0031 65.3798 -106.696 47.9899 -209.22 60.8611C-269.267 68.6804 -323.208 108.962 -365.404 153.277C-422.531 213.274 -457.871 279.716 -457.871 279.716L-458.195 280.057Z" fill="white"/>
<path d="M-480.027 257.97C-480.027 257.97 -478.111 254.594 -474.589 248.849C-463.697 231.272 -436.38 190.988 -398.403 151.104C-350.04 100.312 -284.026 50.0781 -210.254 45.5777C-113.882 39.8486 -75.1929 57.1887 -30.2332 99.9982C-4.34723 124.646 24.0831 158.216 66.0415 200.768C69.4475 204.011 72.513 206.93 75.919 210.173C120.198 252.334 160.67 274.621 197.058 279.372C233.107 283.799 265.072 270.689 292.013 242.395C305.32 228.419 317.867 210.468 329.003 189.224C357.623 133.932 358.189 88.324 356.013 39.4565C353.838 -9.41097 349.587 -61.5547 369.564 -130.277C393.844 -213.749 429.276 -262.555 453.295 -287.781C461.41 -296.303 467.934 -301.79 472.835 -305.573C475.123 -307.294 477.086 -308.674 478.06 -309.697C479.374 -310.395 480.023 -311.077 480.023 -311.077L479.667 -312.066C479.667 -312.066 468.519 -305.133 452.614 -288.429C428.27 -262.863 392.838 -214.057 368.883 -130.925C349.247 -61.8791 353.173 -9.39437 355.348 39.4731C357.524 88.3406 357.282 133.607 328.322 188.575C317.186 209.819 304.964 227.429 291.331 241.747C264.391 270.04 233.091 283.134 197.367 278.366C161.643 273.599 121.512 251.635 77.2333 209.474C74.1679 206.556 70.7619 203.313 67.3558 200.069C25.0729 157.859 -3.03287 123.948 -28.9188 99.2999C-74.2191 56.166 -113.573 38.8425 -209.945 44.5716C-284.382 49.0887 -350.381 99.9874 -398.744 150.78C-449.704 204.299 -480.692 257.986 -481.016 258.327L-480.027 257.97Z" fill="white"/>
<path d="M-501.192 235.866C-501.192 235.866 -499.585 233.496 -496.372 228.757C-486.73 214.539 -463.877 182.353 -430.769 147.583C-377.213 91.3364 -298.167 29.463 -208.984 29.2378C-117.14 28.9463 -76.0987 47.2262 -36.5886 84.8467C-6.27485 113.711 23.3215 154.241 74.1676 206.555C78.2709 211.112 82.3582 215.003 86.786 219.219C129.702 260.083 169.477 281.057 205.509 284.818C241.217 288.921 272.842 275.486 299.133 247.874C314.713 231.512 328.51 210.202 339.858 183.961C365.737 125.408 362.652 80.2244 357.832 32.0885C353.013 -16.0475 345.792 -67.1189 364.374 -138.468C392.053 -246.653 435.339 -300.979 454.49 -321.091C457.411 -324.159 459.683 -326.546 461.647 -327.926C463.269 -329.63 464.259 -329.988 464.259 -329.988L463.578 -330.636C463.578 -330.636 459.992 -327.552 453.825 -321.075C434.674 -300.963 391.404 -245.971 363.06 -137.77C344.478 -66.4205 351.374 -15.0083 356.859 33.1111C361.679 81.247 365.088 126.09 338.869 184.318C327.179 210.235 313.707 231.204 298.127 247.567C272.16 274.838 240.86 287.931 205.493 284.153C170.126 280.375 130.351 259.401 87.7758 218.862C83.6885 214.97 79.2607 210.754 75.1574 206.197C24.3112 153.883 -5.2851 113.353 -35.5989 84.4892C-75.1089 46.8687 -116.491 28.2645 -209 28.5725C-298.524 28.4734 -377.894 90.6878 -431.451 146.934C-475.594 193.295 -502.198 235.558 -502.198 235.558L-501.192 235.866Z" fill="white"/>
<path d="M-522.698 213.439C-522.698 213.439 -521.415 211.411 -518.835 208.018C-511.109 197.176 -492.086 171.742 -464.497 142.767C-407.37 82.7705 -314.335 7.56925 -208.718 12.5922C-120.088 17.04 -77.36 36.2763 -40.9153 70.9779C-6.1737 104.058 22.9177 151.257 80.9646 212.377C85.749 217.582 90.858 222.447 95.9671 227.312C137.521 266.878 177.28 287.187 212.631 290.3C248.322 293.737 279.947 280.302 305.914 253.031C323.441 234.624 338.148 209.63 350.066 179.381C373.204 117.569 367.133 72.7923 359.004 25.4044C350.874 -21.9835 341.009 -72.3234 358.212 -145.635C391.353 -289.565 444.878 -347.142 447.15 -349.528L446.469 -350.177C443.872 -347.45 390.348 -289.873 356.866 -146.267C340.003 -72.6311 349.543 -21.9503 357.673 25.4376C365.803 72.8255 372.198 117.261 349.06 179.073C337.807 209.306 322.76 233.975 305.233 252.383C279.59 279.313 248.29 292.406 212.939 289.294C177.588 286.181 138.17 266.196 96.6163 226.63C91.8478 222.09 86.7388 217.225 81.6137 211.695C24.232 150.558 -4.85934 103.36 -39.9416 69.9553C-76.3862 35.2536 -119.795 15.3688 -208.75 11.2619C-314.707 5.91457 -408.392 81.7976 -465.519 141.794C-502.521 180.655 -524.044 212.807 -524.044 212.807L-522.698 213.439Z" fill="white"/>
<path d="M-544.205 191.011C-544.205 191.011 -543.247 189.323 -540.975 186.937C-534.84 179.13 -519.665 159.782 -497.593 136.602C-438.843 74.9011 -330.196 -15.3324 -207.449 -3.74734C-121.059 4.41705 -76.6276 25.2749 -41.886 58.355C-2.37594 95.9754 25.5453 149.859 88.7653 218.505C94.231 224.359 99.6967 230.213 105.487 235.727C146.359 274.644 185.421 293.639 221.097 296.411C256.772 299.183 288.722 285.408 314.039 258.819C333.839 238.024 349.796 209.672 360.611 175.124C381.009 110.052 371.288 65.6993 359.848 19.0594C348.733 -27.9213 336.239 -76.8645 352.048 -152.804C367.858 -228.744 387.537 -282.149 403.334 -317.154C411.24 -334.324 418.253 -347.145 423.042 -355.584C425.606 -359.642 427.522 -363.018 428.804 -365.046C430.086 -367.075 431.06 -368.098 431.06 -368.098L430.379 -368.746C430.379 -368.746 382.661 -304.991 351.042 -153.112C335.233 -77.1722 347.743 -27.5639 358.858 19.4169C369.973 66.3976 379.678 110.085 359.606 174.816C348.79 209.364 332.833 237.717 313.358 258.17C288.04 284.759 256.416 298.194 221.405 295.405C186.07 292.957 147.009 273.963 106.136 235.045C100.686 229.856 95.2208 224.002 89.4145 217.823C25.8699 149.518 -1.38617 95.618 -41.2369 57.6732C-76.3191 24.2688 -120.75 3.41096 -207.14 -4.75344C-331.558 -16.6296 -439.865 73.9282 -498.615 135.629C-528.152 166.65 -544.886 190.362 -544.886 190.362L-544.205 191.011Z" fill="white"/>
<path d="M-566.035 168.925C-566.035 168.925 -562.805 164.851 -556.979 158.05C-551.152 151.249 -542.405 141.379 -531.044 129.448C-472.944 68.4295 -348.732 -38.8318 -207.184 -20.3936C-122.385 -9.19436 -77.2562 12.9772 -43.1958 45.4087C1.76398 88.2182 26.844 148.496 95.2211 224.002C101.368 230.505 107.515 237.008 113.646 242.845C153.496 280.79 192.883 299.444 228.542 301.551C264.202 303.658 296.151 289.882 321.793 262.952C343.54 240.113 360.082 208.417 370.461 169.554C388.442 100.882 375.087 57.6177 360.662 11.385C346.577 -34.5233 331.439 -82.7351 345.529 -160.961C359.96 -238.863 377.224 -295.87 390.636 -333.145C397.504 -351.953 403.171 -365.406 407.603 -374.835C409.827 -379.217 411.402 -382.917 412.684 -384.945C413.642 -386.633 414.275 -387.98 414.275 -387.98L413.269 -388.288C413.269 -388.288 373.385 -317.073 344.864 -160.945C330.774 -82.7185 345.588 -34.1659 360.013 12.0668C374.097 57.9751 387.453 101.239 369.796 169.57C359.742 208.093 342.875 240.129 321.453 262.628C296.135 289.217 264.851 302.976 229.191 300.869C193.856 298.421 154.827 280.757 114.976 242.812C108.845 236.975 103.039 230.796 96.5515 223.969C28.1744 148.463 3.09432 88.1851 -41.8654 45.3756C-75.9258 12.9441 -121.735 -9.87618 -206.535 -21.0754C-349.089 -39.8213 -473.284 68.1052 -531.385 129.124C-553.457 152.304 -566.035 168.925 -566.035 168.925Z" fill="white"/>
</g>
</g>
<g opacity="0.4">
<g filter="url(#filter0_f_4740_19420)">
<ellipse cx="3.93438" cy="3.93232" rx="3.93438" ry="3.93232" transform="matrix(-0.970609 0.240663 0.240663 0.970609 226.51 250.891)" fill="#FEFFFB"/>
</g>
<g filter="url(#filter1_f_4740_19420)">
<ellipse cx="3.93438" cy="3.93232" rx="3.93438" ry="3.93232" transform="matrix(-0.970609 0.240663 0.240663 0.970609 226.51 250.891)" fill="#FEFFFB"/>
</g>
</g>
<g opacity="0.4">
<g filter="url(#filter2_f_4740_19420)">
<ellipse cx="2.95079" cy="2.94924" rx="2.95079" ry="2.94924" transform="matrix(-0.970609 0.240663 0.240663 0.970609 80.7285 218.73)" fill="#FEFFFB"/>
</g>
<g filter="url(#filter3_f_4740_19420)">
<ellipse cx="2.95079" cy="2.94924" rx="2.95079" ry="2.94924" transform="matrix(-0.970609 0.240663 0.240663 0.970609 80.7285 218.73)" fill="#FEFFFB"/>
</g>
</g>
<g opacity="0.4" filter="url(#filter4_f_4740_19420)">
<g filter="url(#filter5_f_4740_19420)">
<ellipse cx="2.95079" cy="2.94924" rx="2.95079" ry="2.94924" transform="matrix(-0.970609 0.240663 0.240663 0.970609 368.951 123)" fill="#FEFFFB"/>
</g>
<g filter="url(#filter6_f_4740_19420)">
<ellipse cx="2.95079" cy="2.94924" rx="2.95079" ry="2.94924" transform="matrix(-0.970609 0.240663 0.240663 0.970609 368.951 123)" fill="#FEFFFB"/>
</g>
</g>
<g opacity="0.3" filter="url(#filter7_f_4740_19420)">
<g filter="url(#filter8_f_4740_19420)">
<ellipse cx="2.95079" cy="2.94924" rx="2.95079" ry="2.94924" transform="matrix(-0.970609 0.240663 0.240663 0.970609 343.611 154.352)" fill="#FEFFFB"/>
</g>
<g filter="url(#filter9_f_4740_19420)">
<ellipse cx="2.95079" cy="2.94924" rx="2.95079" ry="2.94924" transform="matrix(-0.970609 0.240663 0.240663 0.970609 343.611 154.352)" fill="#FEFFFB"/>
</g>
</g>
<g opacity="0.1" filter="url(#filter10_f_4740_19420)">
<g filter="url(#filter11_f_4740_19420)">
<ellipse cx="2.95079" cy="2.94924" rx="2.95079" ry="2.94924" transform="matrix(-0.970609 0.240663 0.240663 0.970609 359.539 172.33)" fill="#FEFFFB"/>
</g>
<g filter="url(#filter12_f_4740_19420)">
<ellipse cx="2.95079" cy="2.94924" rx="2.95079" ry="2.94924" transform="matrix(-0.970609 0.240663 0.240663 0.970609 359.539 172.33)" fill="#FEFFFB"/>
</g>
</g>
<g filter="url(#filter13_f_4740_19420)">
<ellipse cx="0.983596" cy="0.98308" rx="0.983596" ry="0.98308" transform="matrix(-0.970609 0.240663 0.240663 0.970609 315.1 211.191)" fill="#FEFFFB"/>
</g>
<g filter="url(#filter14_f_4740_19420)">
<ellipse cx="0.983596" cy="0.98308" rx="0.983596" ry="0.98308" transform="matrix(-0.970609 0.240663 0.240663 0.970609 315.1 211.191)" fill="#FEFFFB"/>
</g>
<g filter="url(#filter15_f_4740_19420)">
<ellipse cx="0.983596" cy="0.98308" rx="0.983596" ry="0.98308" transform="matrix(-0.970609 0.240663 0.240663 0.970609 292.82 261.672)" fill="#FEFFFB"/>
</g>
<g filter="url(#filter16_f_4740_19420)">
<ellipse cx="0.983596" cy="0.98308" rx="0.983596" ry="0.98308" transform="matrix(-0.970609 0.240663 0.240663 0.970609 292.82 261.672)" fill="#FEFFFB"/>
</g>
<g filter="url(#filter17_f_4740_19420)">
<ellipse cx="0.983596" cy="0.98308" rx="0.983596" ry="0.98308" transform="matrix(-0.970609 0.240663 0.240663 0.970609 185.1 283.191)" fill="#FEFFFB"/>
</g>
<g filter="url(#filter18_f_4740_19420)">
<ellipse cx="0.983596" cy="0.98308" rx="0.983596" ry="0.98308" transform="matrix(-0.970609 0.240663 0.240663 0.970609 185.1 283.191)" fill="#FEFFFB"/>
</g>
<g opacity="0.6">
<path d="M1272.58 -400.55C1272.58 -400.55 1273.54 -397.443 1274.83 -391.361C1284.53 -350.265 1318.9 -177.136 1256.27 -36.7386C1220.56 43.5069 1175.25 74.6075 1130.95 103.985C1086.4 132.988 1042.87 160.268 1010.23 232.125C989.901 277.856 997.973 320.545 1022.58 358.331C1075.68 439.889 1205.32 499.842 1291.14 524.406C1353.87 542.162 1390.84 559.645 1412.62 572.632C1423.21 579.06 1430.08 584.706 1434.13 588.464C1436.34 590.221 1437.55 592.092 1438.66 592.97C1439.39 594.093 1439.63 594.467 1439.63 594.467L1440.38 593.979C1440.38 593.979 1416.87 558.682 1291.03 523.415C1205.46 499.225 1075.81 439.271 1022.95 358.087C998.348 320.301 990.145 278.231 1010.72 232.873C1042.98 161.26 1086.38 134.598 1130.69 105.221C1175.23 76.2173 1220.68 44.4989 1256.75 -35.9904C1329.04 -197.587 1273.57 -400.663 1273.57 -400.663L1272.58 -400.55Z" fill="#FFFDFD"/>
<path d="M1448.2 581.431C1448.2 581.431 1413.77 547.38 1287.92 513.723C1200.23 490.377 1070.79 434.018 1018.9 354.33C996.251 319.537 988.387 280.442 1005.22 237.522C1032.76 166.85 1074.7 137.943 1119.14 107.948C1164.19 78.083 1211.97 47.504 1251.7 -27.3735C1331.03 -176.511 1292.19 -381.888 1292.19 -381.888L1291.2 -381.774C1291.2 -381.774 1291.78 -378.424 1292.84 -372.716C1298.94 -331.411 1320.3 -157.8 1250.84 -27.878C1211.24 46.3816 1163.46 76.9606 1118.41 106.826C1073.36 136.69 1031.41 165.598 1003.74 236.887C987.151 280.182 994.885 319.894 1017.54 354.687C1069.66 434.749 1199.72 491.239 1287.41 514.584C1350.28 531.722 1390.35 548.247 1414.74 561.137C1426.93 567.583 1435.17 572.872 1440.21 576.516C1443.03 578.404 1444.63 580.031 1445.73 580.91C1446.84 581.788 1447.32 582.537 1447.32 582.537L1448.2 581.431Z" fill="#FFFDFD"/>
<path d="M1455.89 569.498C1455.89 569.498 1410.92 536.45 1284.43 504.272C1195 481.528 1065.02 429.249 1014.11 351.058C993.405 319.258 985.636 282.765 998.722 242.282C1021.3 172.177 1061.66 141.643 1106.84 111.16C1152.02 80.6775 1202.89 50.7504 1246.15 -17.8975C1333.27 -155.063 1311.19 -363.358 1311.19 -363.358L1310.2 -363.245C1310.2 -363.245 1310.54 -360.269 1310.84 -354.074C1313.97 -312.428 1321.32 -138.222 1245.42 -19.0198C1201.92 49.2539 1151.66 79.3113 1106.48 109.794C1061.3 140.277 1020.82 171.429 997.86 241.778C984.4 282.504 992.413 319.372 1013.36 351.546C1064.76 430.485 1194.5 482.389 1284.17 505.508C1347.29 521.41 1389.97 537.838 1417.09 550.015C1430.65 556.103 1440.25 561.035 1446.53 564.941C1449.73 566.585 1451.94 568.342 1453.42 568.977C1454.9 569.612 1455.39 570.36 1455.39 570.36L1455.89 569.498Z" fill="#FFFDFD"/>
<path d="M1463.34 557.194C1463.34 557.194 1407.45 525.392 1280.57 495.068C1188.78 472.794 1059.12 425.101 1008.94 348.032C989.941 318.851 982.135 285.578 992.096 247.662C1009.96 178.498 1048.48 145.963 1094.16 114.619C1140.09 83.6484 1193.44 54.2429 1240.59 -8.41903C1335.27 -133.987 1329.81 -344.583 1329.81 -344.583L1328.82 -344.47C1328.82 -344.47 1328.78 -341.25 1328.84 -335.429C1328.62 -293.199 1322.34 -118.643 1239.86 -9.54137C1192.47 52.7464 1139.74 82.2823 1093.81 113.252C1047.88 144.223 1009.23 177.375 990.991 246.784C981.274 285.073 988.948 318.964 1007.95 348.146C1058.61 425.963 1188.27 473.655 1280.07 495.929C1343.32 511.214 1389.1 526.684 1418.58 538.39C1433.5 544.122 1444.35 549.314 1451.75 552.489C1455.57 554.263 1457.91 555.402 1459.63 556.412C1461.35 557.421 1462.21 557.925 1462.21 557.925L1463.34 557.194Z" fill="#FFFDFD"/>
<path d="M1471.03 545.262C1471.03 545.262 1403.98 514.333 1277.08 485.618C1183.18 464.188 1053.46 421.325 1004.15 344.761C986.852 318.199 979.141 287.527 985.976 252.179C1000.82 175.924 1044.56 141.586 1098.09 106.734C1109.32 99.4219 1120.55 92.1101 1132.16 84.5546C1165.85 62.6193 1201.18 37.4814 1234.79 0.683721C1336.89 -112.668 1348.05 -325.565 1348.05 -325.565L1347.44 -325.696C1347.44 -325.696 1347.4 -322.476 1346.71 -316.167C1343.27 -273.972 1323.6 -98.6906 1234.3 -0.0645072C1200.94 37.1073 1165.36 61.871 1131.67 83.8063C1120.07 91.3618 1108.46 98.9173 1097.61 105.985C1043.7 141.082 999.588 175.663 984.741 251.919C977.905 287.266 985.485 318.556 1003.02 345.492C1053.2 422.561 1182.67 465.05 1276.82 486.854C1340.21 501.52 1388.73 516.277 1421.18 527.643C1437.71 533.391 1449.68 537.853 1457.94 541.532C1462.13 543.062 1465.09 544.332 1467.43 545.471C1469.53 546.237 1470.39 546.741 1470.39 546.741L1471.03 545.262Z" fill="#FFFDFD"/>
<path d="M1478.47 532.956C1478.47 532.956 1400.89 503.03 1273.35 475.795C1176.96 455.454 1047.81 417.55 998.603 341.978C982.77 317.66 975.155 289.59 979.482 256.941C988.976 183.105 1029.64 146.506 1083.17 111.654C1105.63 97.03 1129.95 82.7977 1155.4 66.2243C1180.11 50.1384 1205.21 32.199 1229.74 9.29975C1339.63 -92.0804 1367.42 -307.278 1367.42 -307.278L1366.06 -306.921C1366.06 -306.921 1365.65 -303.458 1364.71 -297.523C1357.92 -254.744 1324.62 -79.1117 1228.88 8.79525C1204.48 31.0766 1179.25 49.6339 1154.92 65.4761C1129.83 81.8057 1105.15 96.2818 1082.69 110.905C1029.53 145.514 988.114 182.601 978.49 257.054C974.406 290.078 982.265 318.522 998.098 342.84C1047.79 419.16 1177.31 456.82 1273.34 477.405C1336.98 490.836 1388.48 505.252 1423.66 515.904C1441.56 521.295 1455.14 525.774 1464.15 528.965C1473.16 532.157 1478.21 534.192 1478.21 534.192L1478.47 532.956Z" fill="#FFFDFD"/>
<path d="M1486.54 520.781C1486.54 520.781 1398.04 492.101 1270.11 466.72C1170.98 447.092 1042.51 415.141 993.676 339.325C979.305 317.252 971.784 291.784 973.604 261.832C977.631 189.425 1016.59 150.207 1069.75 115.598C1104.56 92.9314 1145.42 72.1867 1186.98 45.1331C1199.33 37.0902 1211.81 28.4294 1224.05 19.3945C1341.5 -70.3879 1385.91 -287.887 1385.91 -287.887L1384.68 -288.147C1384.68 -288.147 1384.26 -284.684 1382.34 -278.636C1372.33 -235.891 1325.27 -59.2899 1222.7 18.1418C1210.71 27.5508 1197.98 35.8375 1185.63 43.8804C1144.08 70.934 1103.21 91.6786 1068.4 114.345C1014.87 149.198 975.534 188.659 971.751 261.441C970.174 291.767 977.695 317.235 992.066 339.308C1041.51 415.254 1170.61 447.336 1269.36 467.207C1333.14 480.02 1387.37 493.722 1425.53 504.034C1444.42 509.312 1459.61 513.808 1469.98 516.642C1480.36 519.477 1486.03 521.642 1486.03 521.642L1486.54 520.781Z" fill="#FFFDFD"/>
<path d="M1494.23 508.85C1494.23 508.85 1394.57 481.043 1266.62 457.271C1164.76 438.358 1036.96 412.359 987.76 336.786C974.85 316.958 967.424 294.092 966.737 266.838C965.672 195.615 1002.8 154.396 1056.7 119.3C1102.75 89.3217 1161 64.179 1218.63 28.2551C1220.13 27.2802 1221.25 26.549 1222.75 25.5741C1345.16 -54.1241 1404.53 -269.111 1404.53 -269.111L1403.3 -269.372C1403.3 -269.372 1402.27 -266.039 1400.34 -259.991C1387.24 -217.898 1327.95 -44.5226 1221.64 24.6955C1220.14 25.6704 1219.02 26.4016 1217.52 27.3765C1160.02 62.6825 1101.64 88.4431 1055.6 118.421C1001.69 153.518 964.436 195.355 965.37 267.195C965.683 294.692 973.352 317.933 986.262 337.761C1035.95 414.082 1164.12 439.838 1265.99 458.751C1329.89 470.946 1386.61 483.56 1427.75 493.532C1448.01 498.453 1464.57 502.591 1476.18 505.687C1487.54 508.408 1493.59 510.33 1493.59 510.33L1494.23 508.85Z" fill="#FFFDFD"/>
<path d="M1501.67 496.543C1501.67 496.543 1391.1 469.983 1262.89 447.447C1158.3 429.248 1031.29 410.192 981.355 333.497C969.906 315.914 962.332 295.275 960.373 270.98C954.216 200.942 989.262 157.348 1043.92 121.764C1090.71 91.2983 1151.68 67.0513 1212.96 36.7392C1220.56 32.8566 1227.92 28.6 1235.4 23.7254C1354.31 -53.1614 1423.15 -250.338 1423.53 -250.582L1422.29 -250.843C1422.29 -250.843 1421.02 -247.884 1418.85 -242.21C1404.17 -203.354 1338.48 -43.9169 1234.78 23.5951C1227.67 28.2259 1219.94 32.7262 1212.72 36.365C1151.43 66.6772 1090.46 90.9242 1043.67 121.39C989.019 156.974 953.598 200.812 959.624 271.468C961.827 296.136 969.401 316.775 980.85 334.359C1031.03 411.428 1158.65 430.614 1263 448.439C1327.17 459.398 1386.87 471.672 1430.37 481.174C1452.24 486.112 1470.16 489.893 1482.14 492.745C1488.32 494.049 1493.26 495.092 1496.6 496.118C1499.69 496.77 1501.54 497.161 1501.54 497.161L1501.67 496.543Z" fill="#FFFDFD"/>
<path d="M1509.36 484.613C1509.36 484.613 1388 458.682 1259.03 438.243C1151.33 421.001 1025.35 409.263 974.444 331.072C964.457 315.733 957.352 297.453 953.747 276.36C942.498 207.507 976.083 161.668 1030.87 125.466C1078.41 94.513 1142.09 71.1617 1207.03 46.4614C1221.46 40.7935 1235.91 33.5159 1249.39 24.7418C1366.18 -51.3006 1442.15 -231.806 1442.15 -231.806L1441.28 -232.311C1441.28 -232.311 1440.01 -229.352 1437.97 -224.296C1421.72 -188.677 1350.72 -42.2998 1248.9 23.9935C1235.43 32.7677 1221.59 40.1757 1206.92 45.4694C1141.98 70.1697 1078.3 93.521 1030.75 124.474C975.352 160.546 941.767 206.384 953.129 276.23C956.36 297.566 964.083 315.977 974.07 331.316C1025.47 410.255 1152.19 421.506 1259.27 438.617C1323.57 448.958 1386 460.518 1432.48 469.68C1455.71 474.261 1474.87 478.303 1488.22 480.797C1495.02 482.232 1499.96 483.275 1503.67 484.057C1507.38 484.84 1509.23 485.231 1509.23 485.231L1509.36 484.613Z" fill="#FFFDFD"/>
<path d="M1517.05 472.681C1517.05 472.681 1384.78 447.996 1255.79 429.167C1144.98 412.883 1020.15 409.455 967.535 328.645C958.766 315.177 952 299.872 947.497 281.495C931.287 213.208 962.662 165.612 1018.44 129.297C1066.73 97.8561 1133.13 75.4005 1201.47 55.9378C1223.71 49.9812 1245.02 39.3085 1265.6 25.9035C1380.53 -48.9202 1460.77 -213.033 1460.77 -213.033L1459.9 -213.538C1459.9 -213.538 1458.76 -211.197 1456.11 -206.271C1439.27 -174.002 1365.44 -40.1631 1265.12 25.1553C1244.9 38.3165 1223.36 48.6151 1201.36 54.9459C1132.77 74.0344 1066.61 96.8641 1018.33 128.305C962.549 164.62 930.295 213.321 946.749 281.982C951.251 300.359 957.643 315.908 966.656 329.75C1019.51 410.934 1144.96 414.493 1255.53 430.402C1319.96 440.126 1385.49 450.728 1434.7 459.176C1459.3 463.399 1479.83 467.085 1494.41 469.84C1501.58 471.03 1507.15 472.204 1511.23 472.743C1514.93 473.525 1517.16 473.672 1517.16 473.672L1517.05 472.681Z" fill="#FFFDFD"/>
<path d="M1524.87 460.13C1524.87 460.13 1381.68 436.692 1252.43 419.099C1195.28 411.558 1136.1 409.073 1083.95 397.746C1032.05 386.792 987.175 366.997 959.894 325.096C952.586 313.872 946.289 300.925 941.751 285.768C920.448 218.665 950.118 168.45 1006.64 131.648C1055.68 99.7198 1124.18 78.0295 1196.42 64.5527C1227.33 58.8118 1256.72 45.0048 1284.05 27.2128C1396.97 -45.7745 1479.39 -194.26 1479.39 -194.26L1478.52 -194.764C1478.52 -194.764 1477.38 -192.423 1474.86 -188.115C1457.68 -158.822 1382.25 -37.2611 1283.43 27.0824C1255.73 45.1181 1226.47 58.3073 1195.8 64.4223C1123.56 77.8991 1054.69 99.8331 1005.65 131.761C949.126 168.564 918.707 219.266 940.253 286.743C945.166 301.656 951.089 314.847 958.64 326.445C986.409 369.094 1031.28 388.89 1083.18 399.843C1135.09 410.796 1194.89 413.411 1252.04 420.952C1316.73 429.44 1384.87 439.946 1437.05 448.053C1463.02 451.92 1485.16 455.622 1500.49 457.89C1508.28 459.211 1514.22 460.141 1518.3 460.68C1522.38 461.218 1524.85 461.74 1524.85 461.74L1524.87 460.13Z" fill="#FFFDFD"/>
<path d="M1532.56 448.2C1532.56 448.2 1378.59 425.39 1248.57 409.894C1189.68 402.954 1129.6 403.184 1077.3 394.085C1025 384.985 979.872 366.425 950.886 321.905C945.04 312.926 939.83 302.468 935.124 291.148C908.486 224.856 936.938 172.77 994.212 135.48C1044 103.065 1115.21 82.27 1191.11 74.4051C1231.04 70.246 1269.51 53.1913 1305.07 30.0374C1415.88 -42.1054 1498.62 -175.354 1498.62 -175.354L1497.76 -175.858C1497.76 -175.858 1496.38 -173.892 1493.98 -170.202C1476.47 -143.884 1401.3 -34.2099 1304.34 28.915C1268.78 52.0689 1230.31 69.1236 1190.75 73.039C1115.1 81.2781 1043.27 101.942 993.481 134.358C936.207 171.648 907.625 224.351 934.132 291.261C938.837 302.581 944.047 313.039 950.137 322.392C979.611 367.661 1024.74 386.221 1077.41 395.077C1130.09 403.932 1189.79 403.946 1248.68 410.886C1313.5 418.756 1384.75 428.304 1439.29 435.941C1466.87 439.825 1489.75 443.04 1506.33 445.569C1514.49 446.646 1521.04 447.706 1525.74 448.375C1530.44 449.044 1532.67 449.192 1532.67 449.192L1532.56 448.2Z" fill="#FFFDFD"/>
<path d="M1540 435.894C1540 435.894 1375.12 414.332 1244.84 400.071C1183.97 393.357 1123.48 397.051 1070.41 390.049C1017.35 383.046 971.954 365.722 940.288 317.087C935.903 310.353 931.893 303.375 928.144 295.161C896.789 229.81 923.161 175.349 980.809 137.815C1030.97 105.156 1104.9 85.2572 1184.21 82.6299C1233.65 80.8008 1282.19 60.3852 1326.36 31.6256C1434.55 -38.8111 1516.14 -157.458 1516.14 -157.458L1515.76 -157.214C1515.76 -157.214 1514.38 -155.247 1512.12 -152.175C1494.88 -128.703 1421.07 -30.037 1326.74 31.3818C1282.57 60.1414 1234.27 80.9312 1184.96 82.1425C1105.65 84.7698 1031.48 104.295 980.94 137.198C922.917 174.975 896.04 230.297 927.639 296.023C931.144 303.862 935.398 311.214 939.783 317.948C971.449 366.584 1017.46 384.038 1070.52 391.041C1123.59 398.043 1184.08 394.349 1244.95 401.063C1309.91 408.315 1383.88 417.149 1441.16 424.072C1470.11 427.599 1494.6 430.831 1511.92 432.872C1520.7 434.08 1527.63 434.896 1532.33 435.565C1537.03 436.234 1539.87 436.512 1539.87 436.512L1540 435.894Z" fill="#FFFDFD"/>
<path d="M1547.69 423.963C1547.69 423.963 1371.89 403.647 1241.59 390.996C1178.36 384.753 1117.46 391.91 1064.25 387.135C1010.42 382.23 964.277 365.394 929.688 312.269C927.252 308.527 924.816 304.786 922.755 300.801C904.409 268.531 901.773 238.284 910.746 211.133C919.72 183.982 940.547 160.301 969.745 141.29C1020.66 108.143 1097.3 89.1401 1179.89 92.3684C1239.82 94.3658 1299.68 69.2401 1352.46 34.8748C1457.28 -33.3683 1535.86 -137.805 1535.86 -137.805L1535 -138.309C1535 -138.309 1533.99 -136.586 1531.48 -133.888C1515.15 -113.131 1443.69 -25.5861 1351.98 34.1266C1299.2 68.4919 1239.33 93.6175 1179.77 91.3764C1096.81 88.3919 1019.92 107.021 968.64 140.411C939.442 159.422 918.241 183.347 909.267 210.498C900.293 237.649 903.173 268.27 921.763 300.915C923.824 304.9 926.26 308.641 928.696 312.382C963.528 365.881 1010.29 382.848 1064.12 387.753C1117.95 392.658 1178.48 385.745 1241.46 391.614C1306.68 397.631 1383.26 406.368 1443.51 412.951C1473.45 416.365 1499.69 418.996 1518.24 421.298C1527.4 422.262 1534.94 423.209 1540.02 423.634C1545.09 424.059 1547.94 424.337 1547.94 424.337L1547.69 423.963Z" fill="#FFFDFD"/>
<path d="M1555.76 411.786C1555.76 411.786 1368.8 392.343 1238.11 381.545C1172.76 376.147 1111.69 387.141 1057.1 384.333C1002.5 381.526 955.233 365.42 915.886 305.805C895.181 274.004 890.691 243.367 899.047 216.085C907.159 188.43 927.742 164.374 957.315 145.12C1008.97 111.486 1087.96 93.6218 1174.57 102.218C1245.72 109.164 1318.04 78.5977 1380.18 38.1392C1480.87 -27.423 1555.1 -118.902 1555.1 -118.902L1553.38 -119.911C1553.38 -119.911 1552.12 -118.562 1549.99 -116.107C1534.18 -97.8219 1466.55 -20.7632 1378.58 36.5123C1316.44 76.9708 1244.51 107.294 1173.97 100.478C1087.36 91.8816 1008 109.989 956.341 143.623C926.768 162.878 906.054 187.551 897.942 215.207C889.83 242.862 894.563 273.874 915.268 305.674C954.241 365.533 1002.37 382.143 1057.34 384.707C1111.94 387.515 1173.01 376.521 1238.35 381.919C1303.7 387.318 1383.14 394.724 1446 401.211C1477.3 404.267 1504.77 407.159 1524.69 409.104C1534.47 410.198 1542.39 410.901 1547.46 411.327C1552.78 412.126 1555.63 412.404 1555.63 412.404L1555.76 411.786Z" fill="#FFFDFD"/>
<path d="M1563.2 399.482C1563.2 399.482 1365.7 381.041 1234.38 371.724C1168.53 367.187 1109.41 381.174 1055.39 381.716C1001.37 382.258 953.456 369.242 909.765 310.324C907.816 307.331 905.737 304.956 904.032 302.337C884.545 272.407 880.412 243.136 888.262 216.716C896.113 190.296 915.948 166.728 944.772 147.961C997.179 113.839 1078.5 97.1148 1168.53 110.949C1251.63 123.966 1337.51 87.2272 1409.01 40.6756C1504.09 -21.2306 1573.1 -100.256 1573.48 -100.5L1572.62 -101.005C1572.62 -101.005 1571.36 -99.6555 1569.6 -97.4449C1554.93 -81.5004 1492 -14.4234 1408.52 39.9274C1337.4 86.2353 1251.52 122.974 1169.03 110.087C1078.76 95.8791 997.066 112.847 944.284 147.212C915.46 165.979 895.251 189.791 887.644 216.585C879.663 243.623 883.797 272.895 903.527 303.198C905.232 305.817 907.181 308.81 909.26 311.185C953.195 370.478 1001.73 383.624 1055.75 383.082C1109.76 382.54 1169.26 368.309 1234.73 373.09C1300.21 377.87 1382.39 384.562 1448.35 390.091C1481.27 393.164 1510.1 395.699 1530.4 397.401C1540.55 398.251 1549.09 399.085 1554.78 399.64C1560.47 400.196 1563.32 400.474 1563.32 400.474L1563.2 399.482Z" fill="#FFFDFD"/>
<path d="M1570.89 387.55C1570.89 387.55 1362.23 369.982 1230.52 362.517C1164.53 358.598 1106.99 375.822 1053.55 379.714C1000.5 383.363 951.305 373.305 902.897 315.328C898.738 310.578 894.953 305.584 891.787 300.72C873.274 272.287 869.254 244.007 876.973 218.205C884.693 192.403 903.779 169.323 931.48 151.287C984.636 116.678 1068.68 100.849 1161.98 120.539C1257.76 140.75 1358.84 96.2455 1438.95 44.0883C1527.67 -13.6747 1590.73 -81.3695 1590.73 -81.3695L1589.87 -81.874C1589.87 -81.874 1586.11 -77.827 1578.72 -70.3507C1557.05 -48.7834 1505.09 -0.043143 1438.46 43.34C1358.35 95.4973 1257.03 139.627 1162.11 119.921C1068.19 100.101 983.775 116.173 930.619 150.782C902.543 169.062 883.083 192.386 875.363 218.188C867.643 243.99 871.533 272.888 890.289 301.695C893.456 306.559 897.24 311.553 901.643 316.677C950.295 375.029 999.485 385.086 1053.16 381.568C1106.84 378.05 1164.38 360.826 1230.12 364.371C1295.86 367.916 1381.02 374.268 1449.58 379.7C1483.87 382.417 1514.07 384.594 1535.6 386.556C1546.36 387.537 1555.28 388.127 1560.97 388.683C1567.04 388.995 1570.13 389.647 1570.13 389.647L1570.89 387.55Z" fill="#FFFDFD"/>
</g>
<g opacity="0.4">
<g filter="url(#filter19_f_4740_19420)">
<ellipse cx="3.93438" cy="3.93232" rx="3.93438" ry="3.93232" transform="matrix(0.5 -0.866025 -0.866025 -0.5 1007.81 178.746)" fill="#FEFFFB"/>
</g>
<g filter="url(#filter20_f_4740_19420)">
<ellipse cx="3.93438" cy="3.93232" rx="3.93438" ry="3.93232" transform="matrix(0.5 -0.866025 -0.866025 -0.5 1007.81 178.746)" fill="#FEFFFB"/>
</g>
</g>
<g opacity="0.6">
<g filter="url(#filter21_f_4740_19420)">
<ellipse cx="2.95079" cy="2.94924" rx="2.95079" ry="2.94924" transform="matrix(0.5 -0.866025 -0.866025 -0.5 1295.11 390.061)" fill="#FEFFFB"/>
</g>
</g>
<g opacity="0.4">
<g filter="url(#filter22_f_4740_19420)">
<ellipse cx="2.95079" cy="2.94924" rx="2.95079" ry="2.94924" transform="matrix(0.5 -0.866025 -0.866025 -0.5 1132.11 96.0605)" fill="#FEFFFB"/>
</g>
<g filter="url(#filter23_f_4740_19420)">
<ellipse cx="2.95079" cy="2.94924" rx="2.95079" ry="2.94924" transform="matrix(0.5 -0.866025 -0.866025 -0.5 1132.11 96.0605)" fill="#FEFFFB"/>
</g>
</g>
<g opacity="0.5">
<g filter="url(#filter24_f_4740_19420)">
<ellipse cx="2.95079" cy="2.94924" rx="2.95079" ry="2.94924" transform="matrix(0.5 -0.866025 -0.866025 -0.5 1191.11 445.061)" fill="#FEFFFB"/>
</g>
<g filter="url(#filter25_f_4740_19420)">
<ellipse cx="2.95079" cy="2.94924" rx="2.95079" ry="2.94924" transform="matrix(0.5 -0.866025 -0.866025 -0.5 1191.11 445.061)" fill="#FEFFFB"/>
</g>
</g>
<g filter="url(#filter26_f_4740_19420)">
<ellipse cx="2.95079" cy="2.94924" rx="2.95079" ry="2.94924" transform="matrix(0.5 -0.866025 -0.866025 -0.5 1291.11 42.0605)" fill="#FEFFFB"/>
</g>
<g opacity="0.4" filter="url(#filter27_f_4740_19420)">
<g filter="url(#filter28_f_4740_19420)">
<ellipse cx="2.95079" cy="2.94924" rx="2.95079" ry="2.94924" transform="matrix(0.5 -0.866025 -0.866025 -0.5 1001.11 370.061)" fill="#FEFFFB"/>
</g>
<g filter="url(#filter29_f_4740_19420)">
<ellipse cx="2.95079" cy="2.94924" rx="2.95079" ry="2.94924" transform="matrix(0.5 -0.866025 -0.866025 -0.5 1001.11 370.061)" fill="#FEFFFB"/>
</g>
</g>
<g opacity="0.3" filter="url(#filter30_f_4740_19420)">
<g filter="url(#filter31_f_4740_19420)">
<ellipse cx="2.95079" cy="2.94924" rx="2.95079" ry="2.94924" transform="matrix(0.5 -0.866025 -0.866025 -0.5 996.109 330.061)" fill="#FEFFFB"/>
</g>
<g filter="url(#filter32_f_4740_19420)">
<ellipse cx="2.95079" cy="2.94924" rx="2.95079" ry="2.94924" transform="matrix(0.5 -0.866025 -0.866025 -0.5 996.109 330.061)" fill="#FEFFFB"/>
</g>
</g>
<g opacity="0.1" filter="url(#filter33_f_4740_19420)">
<g filter="url(#filter34_f_4740_19420)">
<ellipse cx="2.95079" cy="2.94924" rx="2.95079" ry="2.94924" transform="matrix(0.5 -0.866025 -0.866025 -0.5 972.109 329.061)" fill="#FEFFFB"/>
</g>
<g filter="url(#filter35_f_4740_19420)">
<ellipse cx="2.95079" cy="2.94924" rx="2.95079" ry="2.94924" transform="matrix(0.5 -0.866025 -0.866025 -0.5 972.109 329.061)" fill="#FEFFFB"/>
</g>
</g>
<g filter="url(#filter36_f_4740_19420)">
<ellipse cx="2.95079" cy="2.94924" rx="2.95079" ry="2.94924" transform="matrix(0.5 -0.866025 -0.866025 -0.5 1249.11 500.061)" fill="#FEFFFB"/>
</g>
<g filter="url(#filter37_f_4740_19420)">
<ellipse cx="2.95079" cy="2.94924" rx="2.95079" ry="2.94924" transform="matrix(0.5 -0.866025 -0.866025 -0.5 1249.11 500.061)" fill="#FEFFFB"/>
</g>
<g filter="url(#filter38_f_4740_19420)">
<ellipse cx="0.983596" cy="0.98308" rx="0.983596" ry="0.98308" transform="matrix(0.5 -0.866025 -0.866025 -0.5 1226.05 428.029)" fill="#FEFFFB"/>
</g>
<g filter="url(#filter39_f_4740_19420)">
<ellipse cx="0.983596" cy="0.98308" rx="0.983596" ry="0.98308" transform="matrix(0.5 -0.866025 -0.866025 -0.5 1226.05 428.029)" fill="#FEFFFB"/>
</g>
<g filter="url(#filter40_f_4740_19420)">
<ellipse cx="0.983596" cy="0.98308" rx="0.983596" ry="0.98308" transform="matrix(0.5 -0.866025 -0.866025 -0.5 911.047 276.029)" fill="#FEFFFB"/>
</g>
<g filter="url(#filter41_f_4740_19420)">
<ellipse cx="0.983596" cy="0.98308" rx="0.983596" ry="0.98308" transform="matrix(0.5 -0.866025 -0.866025 -0.5 911.047 276.029)" fill="#FEFFFB"/>
</g>
<g filter="url(#filter42_f_4740_19420)">
<ellipse cx="0.983596" cy="0.98308" rx="0.983596" ry="0.98308" transform="matrix(0.5 -0.866025 -0.866025 -0.5 954.047 219.029)" fill="#FEFFFB"/>
</g>
<g filter="url(#filter43_f_4740_19420)">
<ellipse cx="0.983596" cy="0.98308" rx="0.983596" ry="0.98308" transform="matrix(0.5 -0.866025 -0.866025 -0.5 954.047 219.029)" fill="#FEFFFB"/>
</g>
<g filter="url(#filter44_f_4740_19420)">
<ellipse cx="0.983596" cy="0.98308" rx="0.983596" ry="0.98308" transform="matrix(0.5 -0.866025 -0.866025 -0.5 1102.05 115.029)" fill="#FEFFFB"/>
</g>
<g filter="url(#filter45_f_4740_19420)">
<ellipse cx="0.983596" cy="0.98308" rx="0.983596" ry="0.98308" transform="matrix(0.5 -0.866025 -0.866025 -0.5 1102.05 115.029)" fill="#FEFFFB"/>
</g>
<defs>
<filter id="filter0_f_4740_19420" x="207.703" y="239.721" width="31.8691" height="31.8672" filterUnits="userSpaceOnUse" color-interpolation-filters="sRGB">
<feFlood flood-opacity="0" result="BackgroundImageFix"/>
<feBlend mode="normal" in="SourceGraphic" in2="BackgroundImageFix" result="shape"/>
<feGaussianBlur stdDeviation="6" result="effect1_foregroundBlur_4740_19420"/>
</filter>
<filter id="filter1_f_4740_19420" x="217.703" y="249.721" width="11.8691" height="11.8672" filterUnits="userSpaceOnUse" color-interpolation-filters="sRGB">
<feFlood flood-opacity="0" result="BackgroundImageFix"/>
<feBlend mode="normal" in="SourceGraphic" in2="BackgroundImageFix" result="shape"/>
<feGaussianBlur stdDeviation="1" result="effect1_foregroundBlur_4740_19420"/>
</filter>
<filter id="filter2_f_4740_19420" x="63.623" y="207.354" width="29.9023" height="29.9004" filterUnits="userSpaceOnUse" color-interpolation-filters="sRGB">
<feFlood flood-opacity="0" result="BackgroundImageFix"/>
<feBlend mode="normal" in="SourceGraphic" in2="BackgroundImageFix" result="shape"/>
<feGaussianBlur stdDeviation="6" result="effect1_foregroundBlur_4740_19420"/>
</filter>
<filter id="filter3_f_4740_19420" x="73.623" y="217.354" width="9.90234" height="9.90039" filterUnits="userSpaceOnUse" color-interpolation-filters="sRGB">
<feFlood flood-opacity="0" result="BackgroundImageFix"/>
<feBlend mode="normal" in="SourceGraphic" in2="BackgroundImageFix" result="shape"/>
<feGaussianBlur stdDeviation="1" result="effect1_foregroundBlur_4740_19420"/>
</filter>
<filter id="filter4_f_4740_19420" x="355.223" y="115" width="23.1484" height="23.1445" filterUnits="userSpaceOnUse" color-interpolation-filters="sRGB">
<feFlood flood-opacity="0" result="BackgroundImageFix"/>
<feBlend mode="normal" in="SourceGraphic" in2="BackgroundImageFix" result="shape"/>
<feGaussianBlur stdDeviation="4" result="effect1_foregroundBlur_4740_19420"/>
</filter>
<filter id="filter5_f_4740_19420" x="351.846" y="111.623" width="29.9023" height="29.9004" filterUnits="userSpaceOnUse" color-interpolation-filters="sRGB">
<feFlood flood-opacity="0" result="BackgroundImageFix"/>
<feBlend mode="normal" in="SourceGraphic" in2="BackgroundImageFix" result="shape"/>
<feGaussianBlur stdDeviation="6" result="effect1_foregroundBlur_4740_19420"/>
</filter>
<filter id="filter6_f_4740_19420" x="361.846" y="121.623" width="9.90234" height="9.90039" filterUnits="userSpaceOnUse" color-interpolation-filters="sRGB">
<feFlood flood-opacity="0" result="BackgroundImageFix"/>
<feBlend mode="normal" in="SourceGraphic" in2="BackgroundImageFix" result="shape"/>
<feGaussianBlur stdDeviation="1" result="effect1_foregroundBlur_4740_19420"/>
</filter>
<filter id="filter7_f_4740_19420" x="329.883" y="146.352" width="23.1484" height="23.1445" filterUnits="userSpaceOnUse" color-interpolation-filters="sRGB">
<feFlood flood-opacity="0" result="BackgroundImageFix"/>
<feBlend mode="normal" in="SourceGraphic" in2="BackgroundImageFix" result="shape"/>
<feGaussianBlur stdDeviation="4" result="effect1_foregroundBlur_4740_19420"/>
</filter>
<filter id="filter8_f_4740_19420" x="326.506" y="142.975" width="29.9023" height="29.9004" filterUnits="userSpaceOnUse" color-interpolation-filters="sRGB">
<feFlood flood-opacity="0" result="BackgroundImageFix"/>
<feBlend mode="normal" in="SourceGraphic" in2="BackgroundImageFix" result="shape"/>
<feGaussianBlur stdDeviation="6" result="effect1_foregroundBlur_4740_19420"/>
</filter>
<filter id="filter9_f_4740_19420" x="336.506" y="152.975" width="9.90234" height="9.90039" filterUnits="userSpaceOnUse" color-interpolation-filters="sRGB">
<feFlood flood-opacity="0" result="BackgroundImageFix"/>
<feBlend mode="normal" in="SourceGraphic" in2="BackgroundImageFix" result="shape"/>
<feGaussianBlur stdDeviation="1" result="effect1_foregroundBlur_4740_19420"/>
</filter>
<filter id="filter10_f_4740_19420" x="345.811" y="164.33" width="23.1484" height="23.1445" filterUnits="userSpaceOnUse" color-interpolation-filters="sRGB">
<feFlood flood-opacity="0" result="BackgroundImageFix"/>
<feBlend mode="normal" in="SourceGraphic" in2="BackgroundImageFix" result="shape"/>
<feGaussianBlur stdDeviation="4" result="effect1_foregroundBlur_4740_19420"/>
</filter>
<filter id="filter11_f_4740_19420" x="342.434" y="160.953" width="29.9023" height="29.9004" filterUnits="userSpaceOnUse" color-interpolation-filters="sRGB">
<feFlood flood-opacity="0" result="BackgroundImageFix"/>
<feBlend mode="normal" in="SourceGraphic" in2="BackgroundImageFix" result="shape"/>
<feGaussianBlur stdDeviation="6" result="effect1_foregroundBlur_4740_19420"/>
</filter>
<filter id="filter12_f_4740_19420" x="352.434" y="170.953" width="9.90234" height="9.90039" filterUnits="userSpaceOnUse" color-interpolation-filters="sRGB">
<feFlood flood-opacity="0" result="BackgroundImageFix"/>
<feBlend mode="normal" in="SourceGraphic" in2="BackgroundImageFix" result="shape"/>
<feGaussianBlur stdDeviation="1" result="effect1_foregroundBlur_4740_19420"/>
</filter>
<filter id="filter13_f_4740_19420" x="312.398" y="210.398" width="3.9668" height="3.9668" filterUnits="userSpaceOnUse" color-interpolation-filters="sRGB">
<feFlood flood-opacity="0" result="BackgroundImageFix"/>
<feBlend mode="normal" in="SourceGraphic" in2="BackgroundImageFix" result="shape"/>
<feGaussianBlur stdDeviation="0.5" result="effect1_foregroundBlur_4740_19420"/>
</filter>
<filter id="filter14_f_4740_19420" x="312.398" y="210.398" width="3.9668" height="3.9668" filterUnits="userSpaceOnUse" color-interpolation-filters="sRGB">
<feFlood flood-opacity="0" result="BackgroundImageFix"/>
<feBlend mode="normal" in="SourceGraphic" in2="BackgroundImageFix" result="shape"/>
<feGaussianBlur stdDeviation="0.5" result="effect1_foregroundBlur_4740_19420"/>
</filter>
<filter id="filter15_f_4740_19420" x="290.119" y="260.879" width="3.9668" height="3.9668" filterUnits="userSpaceOnUse" color-interpolation-filters="sRGB">
<feFlood flood-opacity="0" result="BackgroundImageFix"/>
<feBlend mode="normal" in="SourceGraphic" in2="BackgroundImageFix" result="shape"/>
<feGaussianBlur stdDeviation="0.5" result="effect1_foregroundBlur_4740_19420"/>
</filter>
<filter id="filter16_f_4740_19420" x="290.119" y="260.879" width="3.9668" height="3.9668" filterUnits="userSpaceOnUse" color-interpolation-filters="sRGB">
<feFlood flood-opacity="0" result="BackgroundImageFix"/>
<feBlend mode="normal" in="SourceGraphic" in2="BackgroundImageFix" result="shape"/>
<feGaussianBlur stdDeviation="0.5" result="effect1_foregroundBlur_4740_19420"/>
</filter>
<filter id="filter17_f_4740_19420" x="182.398" y="282.398" width="3.9668" height="3.9668" filterUnits="userSpaceOnUse" color-interpolation-filters="sRGB">
<feFlood flood-opacity="0" result="BackgroundImageFix"/>
<feBlend mode="normal" in="SourceGraphic" in2="BackgroundImageFix" result="shape"/>
<feGaussianBlur stdDeviation="0.5" result="effect1_foregroundBlur_4740_19420"/>
</filter>
<filter id="filter18_f_4740_19420" x="182.398" y="282.398" width="3.9668" height="3.9668" filterUnits="userSpaceOnUse" color-interpolation-filters="sRGB">
<feFlood flood-opacity="0" result="BackgroundImageFix"/>
<feBlend mode="normal" in="SourceGraphic" in2="BackgroundImageFix" result="shape"/>
<feGaussianBlur stdDeviation="0.5" result="effect1_foregroundBlur_4740_19420"/>
</filter>
<filter id="filter19_f_4740_19420" x="990.439" y="157.438" width="31.8672" height="31.8691" filterUnits="userSpaceOnUse" color-interpolation-filters="sRGB">
<feFlood flood-opacity="0" result="BackgroundImageFix"/>
<feBlend mode="normal" in="SourceGraphic" in2="BackgroundImageFix" result="shape"/>
<feGaussianBlur stdDeviation="6" result="effect1_foregroundBlur_4740_19420"/>
</filter>
<filter id="filter20_f_4740_19420" x="1000.44" y="167.438" width="11.8672" height="11.8691" filterUnits="userSpaceOnUse" color-interpolation-filters="sRGB">
<feFlood flood-opacity="0" result="BackgroundImageFix"/>
<feBlend mode="normal" in="SourceGraphic" in2="BackgroundImageFix" result="shape"/>
<feGaussianBlur stdDeviation="1" result="effect1_foregroundBlur_4740_19420"/>
</filter>
<filter id="filter21_f_4740_19420" x="1279.08" y="371.08" width="29.9004" height="29.9004" filterUnits="userSpaceOnUse" color-interpolation-filters="sRGB">
<feFlood flood-opacity="0" result="BackgroundImageFix"/>
<feBlend mode="normal" in="SourceGraphic" in2="BackgroundImageFix" result="shape"/>
<feGaussianBlur stdDeviation="6" result="effect1_foregroundBlur_4740_19420"/>
</filter>
<filter id="filter22_f_4740_19420" x="1116.08" y="77.0801" width="29.9004" height="29.9004" filterUnits="userSpaceOnUse" color-interpolation-filters="sRGB">
<feFlood flood-opacity="0" result="BackgroundImageFix"/>
<feBlend mode="normal" in="SourceGraphic" in2="BackgroundImageFix" result="shape"/>
<feGaussianBlur stdDeviation="6" result="effect1_foregroundBlur_4740_19420"/>
</filter>
<filter id="filter23_f_4740_19420" x="1126.08" y="87.0801" width="9.90039" height="9.90039" filterUnits="userSpaceOnUse" color-interpolation-filters="sRGB">
<feFlood flood-opacity="0" result="BackgroundImageFix"/>
<feBlend mode="normal" in="SourceGraphic" in2="BackgroundImageFix" result="shape"/>
<feGaussianBlur stdDeviation="1" result="effect1_foregroundBlur_4740_19420"/>
</filter>
<filter id="filter24_f_4740_19420" x="1175.08" y="426.08" width="29.9004" height="29.9004" filterUnits="userSpaceOnUse" color-interpolation-filters="sRGB">
<feFlood flood-opacity="0" result="BackgroundImageFix"/>
<feBlend mode="normal" in="SourceGraphic" in2="BackgroundImageFix" result="shape"/>
<feGaussianBlur stdDeviation="6" result="effect1_foregroundBlur_4740_19420"/>
</filter>
<filter id="filter25_f_4740_19420" x="1185.08" y="436.08" width="9.90039" height="9.90039" filterUnits="userSpaceOnUse" color-interpolation-filters="sRGB">
<feFlood flood-opacity="0" result="BackgroundImageFix"/>
<feBlend mode="normal" in="SourceGraphic" in2="BackgroundImageFix" result="shape"/>
<feGaussianBlur stdDeviation="1" result="effect1_foregroundBlur_4740_19420"/>
</filter>
<filter id="filter26_f_4740_19420" x="1275.08" y="23.0801" width="29.9004" height="29.9004" filterUnits="userSpaceOnUse" color-interpolation-filters="sRGB">
<feFlood flood-opacity="0" result="BackgroundImageFix"/>
<feBlend mode="normal" in="SourceGraphic" in2="BackgroundImageFix" result="shape"/>
<feGaussianBlur stdDeviation="6" result="effect1_foregroundBlur_4740_19420"/>
</filter>
<filter id="filter27_f_4740_19420" x="988.002" y="354" width="24.0586" height="24.0605" filterUnits="userSpaceOnUse" color-interpolation-filters="sRGB">
<feFlood flood-opacity="0" result="BackgroundImageFix"/>
<feBlend mode="normal" in="SourceGraphic" in2="BackgroundImageFix" result="shape"/>
<feGaussianBlur stdDeviation="4" result="effect1_foregroundBlur_4740_19420"/>
</filter>
<filter id="filter28_f_4740_19420" x="985.08" y="351.08" width="29.9004" height="29.9004" filterUnits="userSpaceOnUse" color-interpolation-filters="sRGB">
<feFlood flood-opacity="0" result="BackgroundImageFix"/>
<feBlend mode="normal" in="SourceGraphic" in2="BackgroundImageFix" result="shape"/>
<feGaussianBlur stdDeviation="6" result="effect1_foregroundBlur_4740_19420"/>
</filter>
<filter id="filter29_f_4740_19420" x="995.08" y="361.08" width="9.90039" height="9.90039" filterUnits="userSpaceOnUse" color-interpolation-filters="sRGB">
<feFlood flood-opacity="0" result="BackgroundImageFix"/>
<feBlend mode="normal" in="SourceGraphic" in2="BackgroundImageFix" result="shape"/>
<feGaussianBlur stdDeviation="1" result="effect1_foregroundBlur_4740_19420"/>
</filter>
<filter id="filter30_f_4740_19420" x="983.002" y="314" width="24.0586" height="24.0605" filterUnits="userSpaceOnUse" color-interpolation-filters="sRGB">
<feFlood flood-opacity="0" result="BackgroundImageFix"/>
<feBlend mode="normal" in="SourceGraphic" in2="BackgroundImageFix" result="shape"/>
<feGaussianBlur stdDeviation="4" result="effect1_foregroundBlur_4740_19420"/>
</filter>
<filter id="filter31_f_4740_19420" x="980.08" y="311.08" width="29.9004" height="29.9004" filterUnits="userSpaceOnUse" color-interpolation-filters="sRGB">
<feFlood flood-opacity="0" result="BackgroundImageFix"/>
<feBlend mode="normal" in="SourceGraphic" in2="BackgroundImageFix" result="shape"/>
<feGaussianBlur stdDeviation="6" result="effect1_foregroundBlur_4740_19420"/>
</filter>
<filter id="filter32_f_4740_19420" x="990.08" y="321.08" width="9.90039" height="9.90039" filterUnits="userSpaceOnUse" color-interpolation-filters="sRGB">
<feFlood flood-opacity="0" result="BackgroundImageFix"/>
<feBlend mode="normal" in="SourceGraphic" in2="BackgroundImageFix" result="shape"/>
<feGaussianBlur stdDeviation="1" result="effect1_foregroundBlur_4740_19420"/>
</filter>
<filter id="filter33_f_4740_19420" x="959.002" y="313" width="24.0586" height="24.0605" filterUnits="userSpaceOnUse" color-interpolation-filters="sRGB">
<feFlood flood-opacity="0" result="BackgroundImageFix"/>
<feBlend mode="normal" in="SourceGraphic" in2="BackgroundImageFix" result="shape"/>
<feGaussianBlur stdDeviation="4" result="effect1_foregroundBlur_4740_19420"/>
</filter>
<filter id="filter34_f_4740_19420" x="956.08" y="310.08" width="29.9004" height="29.9004" filterUnits="userSpaceOnUse" color-interpolation-filters="sRGB">
<feFlood flood-opacity="0" result="BackgroundImageFix"/>
<feBlend mode="normal" in="SourceGraphic" in2="BackgroundImageFix" result="shape"/>
<feGaussianBlur stdDeviation="6" result="effect1_foregroundBlur_4740_19420"/>
</filter>
<filter id="filter35_f_4740_19420" x="966.08" y="320.08" width="9.90039" height="9.90039" filterUnits="userSpaceOnUse" color-interpolation-filters="sRGB">
<feFlood flood-opacity="0" result="BackgroundImageFix"/>
<feBlend mode="normal" in="SourceGraphic" in2="BackgroundImageFix" result="shape"/>
<feGaussianBlur stdDeviation="1" result="effect1_foregroundBlur_4740_19420"/>
</filter>
<filter id="filter36_f_4740_19420" x="1233.08" y="481.08" width="29.9004" height="29.9004" filterUnits="userSpaceOnUse" color-interpolation-filters="sRGB">
<feFlood flood-opacity="0" result="BackgroundImageFix"/>
<feBlend mode="normal" in="SourceGraphic" in2="BackgroundImageFix" result="shape"/>
<feGaussianBlur stdDeviation="6" result="effect1_foregroundBlur_4740_19420"/>
</filter>
<filter id="filter37_f_4740_19420" x="1243.08" y="491.08" width="9.90039" height="9.90039" filterUnits="userSpaceOnUse" color-interpolation-filters="sRGB">
<feFlood flood-opacity="0" result="BackgroundImageFix"/>
<feBlend mode="normal" in="SourceGraphic" in2="BackgroundImageFix" result="shape"/>
<feGaussianBlur stdDeviation="1" result="effect1_foregroundBlur_4740_19420"/>
</filter>
<filter id="filter38_f_4740_19420" x="1223.7" y="424.703" width="3.9668" height="3.9668" filterUnits="userSpaceOnUse" color-interpolation-filters="sRGB">
<feFlood flood-opacity="0" result="BackgroundImageFix"/>
<feBlend mode="normal" in="SourceGraphic" in2="BackgroundImageFix" result="shape"/>
<feGaussianBlur stdDeviation="0.5" result="effect1_foregroundBlur_4740_19420"/>
</filter>
<filter id="filter39_f_4740_19420" x="1223.7" y="424.703" width="3.9668" height="3.9668" filterUnits="userSpaceOnUse" color-interpolation-filters="sRGB">
<feFlood flood-opacity="0" result="BackgroundImageFix"/>
<feBlend mode="normal" in="SourceGraphic" in2="BackgroundImageFix" result="shape"/>
<feGaussianBlur stdDeviation="0.5" result="effect1_foregroundBlur_4740_19420"/>
</filter>
<filter id="filter40_f_4740_19420" x="908.703" y="272.703" width="3.9668" height="3.9668" filterUnits="userSpaceOnUse" color-interpolation-filters="sRGB">
<feFlood flood-opacity="0" result="BackgroundImageFix"/>
<feBlend mode="normal" in="SourceGraphic" in2="BackgroundImageFix" result="shape"/>
<feGaussianBlur stdDeviation="0.5" result="effect1_foregroundBlur_4740_19420"/>
</filter>
<filter id="filter41_f_4740_19420" x="908.703" y="272.703" width="3.9668" height="3.9668" filterUnits="userSpaceOnUse" color-interpolation-filters="sRGB">
<feFlood flood-opacity="0" result="BackgroundImageFix"/>
<feBlend mode="normal" in="SourceGraphic" in2="BackgroundImageFix" result="shape"/>
<feGaussianBlur stdDeviation="0.5" result="effect1_foregroundBlur_4740_19420"/>
</filter>
<filter id="filter42_f_4740_19420" x="951.703" y="215.703" width="3.9668" height="3.9668" filterUnits="userSpaceOnUse" color-interpolation-filters="sRGB">
<feFlood flood-opacity="0" result="BackgroundImageFix"/>
<feBlend mode="normal" in="SourceGraphic" in2="BackgroundImageFix" result="shape"/>
<feGaussianBlur stdDeviation="0.5" result="effect1_foregroundBlur_4740_19420"/>
</filter>
<filter id="filter43_f_4740_19420" x="951.703" y="215.703" width="3.9668" height="3.9668" filterUnits="userSpaceOnUse" color-interpolation-filters="sRGB">
<feFlood flood-opacity="0" result="BackgroundImageFix"/>
<feBlend mode="normal" in="SourceGraphic" in2="BackgroundImageFix" result="shape"/>
<feGaussianBlur stdDeviation="0.5" result="effect1_foregroundBlur_4740_19420"/>
</filter>
<filter id="filter44_f_4740_19420" x="1099.7" y="111.703" width="3.9668" height="3.9668" filterUnits="userSpaceOnUse" color-interpolation-filters="sRGB">
<feFlood flood-opacity="0" result="BackgroundImageFix"/>
<feBlend mode="normal" in="SourceGraphic" in2="BackgroundImageFix" result="shape"/>
<feGaussianBlur stdDeviation="0.5" result="effect1_foregroundBlur_4740_19420"/>
</filter>
<filter id="filter45_f_4740_19420" x="1099.7" y="111.703" width="3.9668" height="3.9668" filterUnits="userSpaceOnUse" color-interpolation-filters="sRGB">
<feFlood flood-opacity="0" result="BackgroundImageFix"/>
<feBlend mode="normal" in="SourceGraphic" in2="BackgroundImageFix" result="shape"/>
<feGaussianBlur stdDeviation="0.5" result="effect1_foregroundBlur_4740_19420"/>
</filter>
<clipPath id="clip0_4740_19420">
<rect width="758.139" height="1101.91" fill="white" transform="translate(175.852 -615) rotate(43.5966)"/>
</clipPath>
</defs>
</svg>
