<?xml version="1.0" encoding="utf-8"?><svg xmlns="http://www.w3.org/2000/svg" xmlns:xlink="http://www.w3.org/1999/xlink"><symbol viewBox="0 0 24 24" id="arrow-right" xmlns="http://www.w3.org/2000/svg"><path fill-rule="evenodd" clip-rule="evenodd" d="m18.945 11.357-3.767-3.731.844-.853 5.227 5.177-5.223 5.272-.852-.845 3.784-3.82-17.756.043-.003-1.2 17.746-.043Z"/></symbol><symbol viewBox="0 0 22 24" id="basket" xmlns="http://www.w3.org/2000/svg"><g clip-path="url(#ba)"><path d="M10.363 18.443a2.046 2.046 0 0 0-2.045 2.042 2.046 2.046 0 0 0 4.09 0 2.046 2.046 0 0 0-2.045-2.042Zm6.134 0a2.046 2.046 0 0 0-2.045 2.042 2.046 2.046 0 0 0 4.089 0 2.046 2.046 0 0 0-2.044-2.042Zm3.978-8.199L7.413 6.891a.614.614 0 0 0-.75.73L8.67 16.4h-.786L5.482 5.895a.613.613 0 0 0-.474-.464l-4.27-.882A.614.614 0 0 0 .489 5.75l3.885.802L6.797 17.15a.613.613 0 0 0 .598.477h12.07a.615.615 0 0 0 .607-.53l.858-6.175a.613.613 0 0 0-.455-.678Zm-8.14 3.91a.613.613 0 0 1-1.227 0v-2.696a.613.613 0 0 1 1.227 0v2.696Zm2.625 0a.613.613 0 0 1-1.227 0v-1.88a.613.613 0 0 1 1.227 0v1.88Zm2.625 0a.613.613 0 0 1-1.227 0v-1.226a.613.613 0 0 1 1.227 0v1.226Z"/></g><path fill-rule="evenodd" clip-rule="evenodd" d="M16.268 4.568a2.996 2.996 0 0 0-1.693-.523c-.627 0-1.21.193-1.693.523-.28-.843-.492-1.752-.492-2.383C12.39.98 13.37 0 14.575 0s2.185.98 2.185 2.185c0 .631-.212 1.54-.492 2.383Zm-4.722 2.274.024.006v-.011l-.024.005Zm4.972 1.217c-1.333-.33-2.766-.681-4.129-1.013a2.185 2.185 0 1 1 4.129 1.013Zm4.436 1.103c-.866-.217-2.155-.538-3.618-.9a2.995 2.995 0 0 0 .243-1.425c.87.18 1.762.45 2.308.765.596.344.969.928 1.067 1.56ZM9.869 6.439c-.36-.086-.706-.167-1.03-.243a2.19 2.19 0 0 1-.376-2.667 2.188 2.188 0 0 1 3.147-.7c.098.738.338 1.599.61 2.353a3.01 3.01 0 0 0-.449.774c-.628.113-1.305.278-1.902.483Zm10.124.075a3.43 3.43 0 0 1-.217.114c-.696-.295-1.587-.526-2.397-.672a3.01 3.01 0 0 0-.449-.774c.262-.727.494-1.553.599-2.273.095-.067.189-.128.278-.18a2.188 2.188 0 0 1 2.986.8 2.188 2.188 0 0 1-.8 2.985Z"/><defs><clipPath id="ba"><path transform="translate(0 3.064)" d="M0 0h20.936v20.936H0z"/></clipPath></defs></symbol><symbol viewBox="0 0 344.96 344.96" id="check" xmlns="http://www.w3.org/2000/svg"><g data-name="Слой 2"><path class="ccls-1" d="m321.85 86.24-40-23.11-23.1-40H212.5L172.48 0l-40 23.11H86.24l-23.11 40-40 23.1v46.21L0 172.48l23.11 40v46.21l40 23.11 23.11 40h46.21l40 23.1 40-23.11h46.21l23.11-40 40-23.11V212.5l23.11-40-23.11-40V86.24ZM156.91 243.07a16.79 16.79 0 0 1-23.34 0l-50.45-50.44a16.19 16.19 0 0 1 0-22.89l13.35-13.35a16.19 16.19 0 0 1 22.89 0l25.87 25.87 80.34-80.35a16.19 16.19 0 0 1 22.89 0l13.35 13.35a16.19 16.19 0 0 1 0 22.89Z" data-name="Capa 1"/></g></symbol><symbol viewBox="0 0 16 16" id="chevron-left" xmlns="http://www.w3.org/2000/svg"><path fill-rule="evenodd" clip-rule="evenodd" d="m6.167 8 4.517-4.516-.566-.566-5.083 5.083 5.083 5.083.566-.566-4.517-4.517Z"/></symbol><symbol viewBox="0 0 51 22" id="circle-arrow" xmlns="http://www.w3.org/2000/svg"><path d="m38.305 4.5 6.195 6.195m0 0-6.195 6.196m6.195-6.196H0"/><circle cx="40.5" cy="11" r="10"/></symbol><symbol viewBox="0 0 24 24" id="fb" xmlns="http://www.w3.org/2000/svg"><path d="M13.397 20.997v-8.196h2.765l.411-3.209h-3.176V7.548c0-.926.258-1.56 1.587-1.56h1.684v-2.86A22.108 22.108 0 0 0 14.201 3c-2.444 0-4.122 1.492-4.122 4.231v2.355H7.332v3.21h2.753v8.201h3.312Z"/></symbol><symbol viewBox="0 0 16 16" id="grid" xmlns="http://www.w3.org/2000/svg"><path fill-rule="evenodd" clip-rule="evenodd" d="M2.523 2.857c0-.184.15-.334.334-.334h4c.184 0 .333.15.333.334v4c0 .184-.15.333-.333.333h-4a.333.333 0 0 1-.334-.333v-4Zm.667.333v3.333h3.333V3.19H3.19Zm5.62-.333c0-.184.148-.334.332-.334h4c.185 0 .334.15.334.334v4c0 .184-.15.333-.334.333h-4a.333.333 0 0 1-.333-.333v-4Zm.666.333v3.333h3.333V3.19H9.476ZM2.523 9.142c0-.184.15-.333.334-.333h4c.184 0 .333.15.333.333v4c0 .185-.15.334-.333.334h-4a.333.333 0 0 1-.334-.334v-4Zm.667.334v3.333h3.333V9.476H3.19Zm5.62-.334c0-.184.148-.333.332-.333h4c.185 0 .334.15.334.333v4c0 .185-.15.334-.334.334h-4a.333.333 0 0 1-.333-.334v-4Zm.666.334v3.333h3.333V9.476H9.476Z"/></symbol><symbol viewBox="0 0 24 24" id="instagram" xmlns="http://www.w3.org/2000/svg"><path d="M11.999 7.377a4.624 4.624 0 1 0 0 9.248 4.624 4.624 0 0 0 0-9.248Zm0 7.627a3.004 3.004 0 1 1 0-6.008 3.004 3.004 0 0 1 0 6.008Zm4.807-6.719a1.078 1.078 0 1 0 0-2.156 1.078 1.078 0 0 0 0 2.156Z"/><path d="M20.533 6.11A4.605 4.605 0 0 0 17.9 3.48a6.607 6.607 0 0 0-2.186-.42c-.963-.042-1.268-.054-3.71-.054s-2.755 0-3.71.054a6.554 6.554 0 0 0-2.184.42 4.6 4.6 0 0 0-2.633 2.63 6.585 6.585 0 0 0-.419 2.186c-.043.962-.056 1.267-.056 3.71 0 2.442 0 2.753.056 3.71.015.748.156 1.486.419 2.187a4.61 4.61 0 0 0 2.634 2.632 6.583 6.583 0 0 0 2.185.45c.963.042 1.268.055 3.71.055s2.755 0 3.71-.055a6.616 6.616 0 0 0 2.186-.42 4.613 4.613 0 0 0 2.633-2.632c.263-.7.404-1.438.419-2.186.043-.962.056-1.267.056-3.71s0-2.753-.056-3.71a6.583 6.583 0 0 0-.421-2.217Zm-1.218 9.533a5.046 5.046 0 0 1-.311 1.688 2.987 2.987 0 0 1-1.712 1.71c-.535.2-1.1.305-1.67.312-.95.044-1.218.055-3.654.055-2.438 0-2.687 0-3.655-.055a4.961 4.961 0 0 1-1.67-.311 2.984 2.984 0 0 1-1.718-1.711 5.08 5.08 0 0 1-.311-1.67c-.043-.95-.053-1.217-.053-3.653 0-2.437 0-2.686.053-3.655a5.038 5.038 0 0 1 .311-1.687c.305-.79.93-1.41 1.719-1.712a5.01 5.01 0 0 1 1.669-.311c.95-.043 1.218-.055 3.655-.055s2.687 0 3.654.055a4.96 4.96 0 0 1 1.67.31 2.99 2.99 0 0 1 1.712 1.713 5.06 5.06 0 0 1 .311 1.669c.043.95.054 1.218.054 3.655 0 2.436 0 2.698-.043 3.654h-.011v-.001Z"/></symbol><symbol viewBox="0 0 24 24" id="mail" xmlns="http://www.w3.org/2000/svg"><path d="M12 12.246 3.953 6.614a1.22 1.22 0 0 1 1.19-.971h13.714c.584 0 1.076.42 1.19.97L12 12.247Z"/><path d="m12.287 13.267 7.785-5.45v9.326a1.22 1.22 0 0 1-1.215 1.214H5.143a1.22 1.22 0 0 1-1.214-1.214V7.817l7.784 5.45a.5.5 0 0 0 .574 0Z"/></symbol><symbol viewBox="0 0 16 16" id="map" xmlns="http://www.w3.org/2000/svg"><path fill-rule="evenodd" clip-rule="evenodd" d="M5.549 1.997a.333.333 0 0 1 .314-.009l4.412 2.206 3.845-2.197a.333.333 0 0 1 .499.29v9.142c0 .12-.064.23-.168.29l-4 2.285a.333.333 0 0 1-.314.01l-4.412-2.207-3.845 2.197a.333.333 0 0 1-.5-.289V4.572c0-.12.065-.23.169-.29l4-2.285Zm.499 9.226 3.904 1.953V4.778L6.048 2.826v8.397ZM5.38 2.861v8.375L2.048 13.14V4.766L5.38 2.86Zm5.238 1.905v8.375l3.333-1.905V2.86L10.62 4.766Z"/></symbol><symbol viewBox="0 0 24 24" id="phone" xmlns="http://www.w3.org/2000/svg"><path d="m10.777 7.695.016.023.02.02c.142.159.172.296.157.431-.017.159-.103.361-.282.604-.083.11-.181.225-.31.36-.06.064-.108.112-.215.219l-.613.613a.536.536 0 0 0-.154.375c-.001.07.01.131.02.17.02.08.051.165.085.243.07.16.177.36.315.582a9.132 9.132 0 0 0 1.267 1.58c.56.561 1.131.988 1.578 1.267.223.139.423.246.583.316.078.033.162.065.243.084a.7.7 0 0 0 .17.02.536.536 0 0 0 .374-.154l-.353-.353.353.353.613-.613c.334-.334.483-.466.683-.598.208-.136.389-.198.533-.204a.53.53 0 0 1 .397.153l.02.018.022.016c1.544 1.104 2.371 1.75 2.758 2.152.626.651.553 1.673.002 2.255-.241.255-.55.564-.919.92l-.006.006c-.948.948-2.48 1.192-4.313.7-1.823-.49-3.845-1.69-5.614-3.46-1.77-1.772-2.97-3.795-3.459-5.618-.492-1.833-.25-3.365.696-4.31l.002-.003c.401-.407.532-.538.923-.923.554-.545 1.628-.624 2.26 0 .408.403 1.091 1.277 2.148 2.756Z"/></symbol><symbol viewBox="0 0 24 24" id="quote" xmlns="http://www.w3.org/2000/svg"><path d="M22.113 3.22V4.5c-1.81.66-3.227 1.704-4.254 3.13-1.026 1.41-1.54 2.88-1.54 4.41 0 .331.053.575.157.731.07.105.148.157.235.157s.218-.06.392-.183c.556-.4 1.26-.6 2.113-.6.992 0 1.87.409 2.636 1.227.765.8 1.148 1.757 1.148 2.87 0 1.165-.444 2.192-1.33 3.08-.87.886-1.932 1.33-3.184 1.33-1.462 0-2.723-.6-3.784-1.8-1.061-1.2-1.592-2.81-1.592-4.828 0-2.349.722-4.454 2.166-6.315 1.444-1.861 3.723-3.358 6.837-4.488Zm-12.552 0V4.5c-1.809.66-3.227 1.704-4.253 3.13-1.027 1.41-1.54 2.88-1.54 4.41 0 .331.052.575.157.731.07.105.148.157.235.157s.217-.06.391-.183c.557-.4 1.261-.6 2.114-.6.991 0 1.87.409 2.635 1.227.766.8 1.148 1.757 1.148 2.87 0 1.165-.443 2.192-1.33 3.08-.87.886-1.931 1.33-3.184 1.33-1.461 0-2.722-.6-3.784-1.8-1.06-1.2-1.591-2.81-1.591-4.828 0-2.349.722-4.454 2.165-6.315 1.444-1.861 3.723-3.358 6.837-4.488Z"/></symbol><symbol viewBox="0 0 24 24" id="search" xmlns="http://www.w3.org/2000/svg"><path d="m19.714 19.714-3.729-3.729M18 11.142a6.857 6.857 0 1 1-13.714 0 6.857 6.857 0 0 1 13.714 0Z"/></symbol><symbol viewBox="0 0 24 24" id="search-p" xmlns="http://www.w3.org/2000/svg"><path fill-rule="evenodd" clip-rule="evenodd" d="M14.71 14h.79l4.99 5L19 20.49l-5-4.99v-.79l-.27-.28A6.471 6.471 0 0 1 9.5 16 6.5 6.5 0 1 1 16 9.5c0 1.61-.59 3.09-1.57 4.23l.28.27ZM5 9.5C5 11.99 7.01 14 9.5 14S14 11.99 14 9.5 11.99 5 9.5 5 5 7.01 5 9.5Z"/></symbol><symbol viewBox="0 0 24 24" id="smartphone" xmlns="http://www.w3.org/2000/svg"><path fill-rule="evenodd" clip-rule="evenodd" d="M8 3a2 2 0 0 0-2 2v13a2 2 0 0 0 2 2h8a2 2 0 0 0 2-2V5a2 2 0 0 0-2-2H8Zm4 4a1 1 0 1 0 0-2 1 1 0 0 0 0 2Z"/></symbol><symbol viewBox="0 0 24 24" id="telegram" xmlns="http://www.w3.org/2000/svg"><path d="m15.826 8.827-.245-.436h-.002l-.003.003-.013.007-.053.03-.2.113a950.048 950.048 0 0 0-2.95 1.675c-1.643.937-3.417 1.958-3.812 2.223l-.003.002c-.579.395-1.042.544-1.405.536-.22-.004-.581-.07-1.017-.178a20.179 20.179 0 0 1-1.274-.37 43.858 43.858 0 0 0-.378-.12c-.338-.105-.598-.186-.797-.282a.922.922 0 0 1-.15-.087.785.785 0 0 1 .095-.08c.144-.106.38-.232.733-.371l.015-.006C8.931 9.51 11.97 8.209 13.49 7.58c2.175-.899 3.477-1.421 4.307-1.72.839-.303 1.145-.357 1.35-.361.025 0 .088.003.157.02a.372.372 0 0 1 .127.05l.314-.389-.314.39a.069.069 0 0 1 .02.028.369.369 0 0 1 .024.088 2.176 2.176 0 0 1 .02.48c-.232 2.434-1.247 8.382-1.766 11.139-.21 1.116-.563 1.183-.624 1.19-.308.027-.6-.068-.953-.274a7.93 7.93 0 0 1-.662-.442c-.17-.12-.355-.251-.547-.376-.685-.447-1.22-.809-1.754-1.17l-.071-.048c-.51-.345-1.025-.693-1.667-1.114-.36-.236-.504-.403-.555-.5-.031-.06-.031-.092-.003-.157.044-.1.145-.23.335-.422.08-.081.168-.165.264-.257l.037-.036a10.8 10.8 0 0 0 .344-.339c.108-.111 1.177-1.149 2.232-2.171.525-.508 1.042-1.01 1.429-1.383l.465-.45.13-.127.034-.033.01-.008.001-.002h.001l-.348-.36Zm0 0-.245-.436a.5.5 0 0 1 .593.795l-.348-.36Z"/></symbol><symbol viewBox="0 0 24 24" id="telegram-f" xmlns="http://www.w3.org/2000/svg"><path fill-rule="evenodd" clip-rule="evenodd" d="M3.087 11.422c4.832-2.105 8.054-3.493 9.666-4.164 4.603-1.914 5.56-2.247 6.183-2.258.137-.002.443.032.642.193.168.136.214.32.236.449.022.129.05.423.028.652-.25 2.621-1.33 8.981-1.878 11.916-.233 1.242-.69 1.659-1.133 1.7-.963.088-1.693-.636-2.626-1.247-1.458-.957-2.283-1.552-3.698-2.485-1.637-1.079-.576-1.671.357-2.64.244-.253 4.484-4.11 4.566-4.46.01-.044.02-.208-.077-.294-.096-.086-.24-.056-.343-.033-.146.033-2.476 1.574-6.991 4.621-.661.454-1.26.675-1.797.664-.592-.013-1.73-.335-2.577-.61-1.038-.337-1.863-.516-1.791-1.089.037-.298.448-.603 1.233-.915Z"/></symbol><symbol viewBox="0 0 16 16" id="viber" xmlns="http://www.w3.org/2000/svg"><path d="M8 1.335c-1.071.013-3.374.19-4.662 1.37-.958.948-1.292 2.35-1.331 4.084-.033 1.728-.072 4.973 3.058 5.856v1.346s-.02.538.337.648c.438.14.688-.275 1.105-.72l.778-.879c2.142.178 3.782-.232 3.97-.293.435-.139 2.883-.451 3.283-3.696.41-3.351-.2-5.463-1.301-6.418h-.007c-.332-.306-1.668-1.279-4.652-1.29 0 0-.222-.014-.578-.008Zm.037.942a7.02 7.02 0 0 1 .488.011c2.527.007 3.732.767 4.017 1.023.927.794 1.405 2.697 1.055 5.495-.332 2.713-2.317 2.885-2.685 3.002-.156.05-1.6.406-3.42.289 0 0-1.356 1.634-1.78 2.055-.067.074-.146.095-.196.085-.071-.018-.093-.107-.089-.229l.013-2.233c-2.655-.733-2.498-3.5-2.47-4.946.033-1.446.304-2.628 1.113-3.43 1.088-.982 3.043-1.115 3.953-1.122Zm.2 1.446a.166.166 0 1 0 0 .332 3.136 3.136 0 0 1 2.242.883c.606.588.9 1.378.912 2.411 0 .092.074.167.167.167V7.51a.167.167 0 0 0 .168-.165 3.588 3.588 0 0 0-1.009-2.646c-.66-.645-1.496-.977-2.48-.977Zm-2.198.382a.523.523 0 0 0-.342.067H5.69a2.61 2.61 0 0 0-.637.523 1.003 1.003 0 0 0-.256.525.71.71 0 0 0 .026.302l.01.006c.172.504.396.988.67 1.444a8.48 8.48 0 0 0 1.29 1.762l.015.022.024.017.015.018.017.015c.532.505 1.127.94 1.769 1.295.734.4 1.18.588 1.447.667v.004c.078.024.15.034.221.034.228-.016.444-.109.613-.262a2.53 2.53 0 0 0 .517-.638v-.004c.128-.241.085-.469-.1-.623-.37-.323-.77-.61-1.195-.857-.285-.155-.574-.061-.69.095l-.25.315c-.129.156-.361.134-.361.134l-.007.004C7.093 8.527 6.63 6.772 6.63 6.772s-.022-.239.139-.36l.312-.252c.15-.122.254-.41.094-.695a7.498 7.498 0 0 0-.856-1.194.475.475 0 0 0-.28-.167Zm2.486.495c-.221 0-.221.334.003.334A2.098 2.098 0 0 1 10 5.572 1.94 1.94 0 0 1 10.5 7a.168.168 0 0 0 .167.165l.007.009a.169.169 0 0 0 .167-.167c.015-.662-.191-1.218-.595-1.663C9.84 4.9 9.273 4.65 8.549 4.6h-.024Zm.274.898c-.228-.006-.236.335-.01.341.55.029.816.306.851.877a.166.166 0 0 0 .165.163h.007a.168.168 0 0 0 .16-.178c-.039-.744-.445-1.164-1.166-1.202H8.8Z"/></symbol><symbol viewBox="0 0 24 24" id="vk" xmlns="http://www.w3.org/2000/svg"><path d="m17.821 12.777-.006-.008-.006-.008a.818.818 0 0 1-.05-.07 1.39 1.39 0 0 1 .072-.121l.016-.023.07-.1.25-.357c.208-.3.487-.713.774-1.158.287-.444.584-.926.826-1.366.228-.415.435-.842.512-1.173.069-.237.11-.58-.1-.876-.22-.312-.59-.394-.919-.394h-1.768a1.32 1.32 0 0 0-.811.25 1.33 1.33 0 0 0-.418.547l-.003.007-.001.004-.007.016a7.433 7.433 0 0 1-.144.322 16.57 16.57 0 0 1-.436.874c-.374.701-.892 1.55-1.485 2.209a5.903 5.903 0 0 1-.238.224v-3.31c0-.246-.03-.548-.213-.79-.21-.277-.518-.353-.792-.353h-3.73v.902c0 .249.1.434.191.564.043.061.09.12.127.164l.005.006.103.13c.114.154.249.38.277.857v2.56a2.705 2.705 0 0 1-.056-.056 6.288 6.288 0 0 1-.712-.944c-.526-.822-1.09-1.955-1.51-3.166v-.001c-.09-.254-.207-.528-.426-.727-.243-.222-.537-.289-.838-.289H3.5v.995c0 .187.053.471.146.808.097.35.247.797.467 1.32.438 1.048 1.154 2.416 2.272 3.967 1.533 2.178 3.731 3.412 5.801 3.412.562 0 1.017-.055 1.33-.262.393-.26.433-.658.433-.918v-1.57c0-.037 0-.07.002-.097.118.017.483.137 1.374.987.29.286.519.534.713.747l.105.115c.149.164.285.315.41.439.156.154.323.299.522.401.209.109.427.158.67.158h1.768c.381 0 .86-.117 1.067-.576.12-.265.1-.552.025-.809l-.004-.012c-.107-.328-.331-.684-.596-1.038a17.61 17.61 0 0 0-.996-1.19c-.223-.26-.496-.525-.72-.742-.25-.241-.407-.397-.468-.481Zm-7.678-.293h.002-.002Z"/></symbol><symbol viewBox="0 0 24 24" id="whatsapp" xmlns="http://www.w3.org/2000/svg"><path fill-rule="evenodd" clip-rule="evenodd" d="M10.236 13.779a5.89 5.89 0 0 0 4.165 1.725 2.12 2.12 0 0 0 1.48-.642c.476-.49.659-1.179.6-1.848-.074-.408-.272-.787-.7-.89l-2.09-.48c-.343-.076-.733.076-.91.38a3 3 0 0 1-.82-.83c.312-.162.455-.569.37-.91l-.47-2.08c-.132-.551-.726-.745-1.24-.7a2.12 2.12 0 0 0-2.11 2.11c0 1.562.62 3.06 1.725 4.165Zm-.4-4.95c.3-.3.67-.325 1.065-.325l.4 1.93-.3.15-.42.22.2.44a4 4 0 0 0 2 1.95l.43.2.22-.42.15-.3 1.93.44c.063.371-.06.8-.325 1.065a1.11 1.11 0 0 1-.785.325 4.89 4.89 0 0 1-4.89-4.89c0-.295.117-.577.325-.785Z"/><path fill-rule="evenodd" clip-rule="evenodd" d="M12.5 3.5a8 8 0 0 0-6.758 12.284l-.946 3.5 3.562-.938A8 8 0 1 0 12.5 3.5Zm-7 8a7 7 0 1 1 3.21 5.887l-.184-.12-2.314.61.614-2.27-.128-.19A6.965 6.965 0 0 1 5.5 11.5Z"/></symbol><symbol viewBox="0 0 24 24" id="whatsapp-f" xmlns="http://www.w3.org/2000/svg"><path fill-rule="evenodd" clip-rule="evenodd" d="M21 12a9 9 0 0 1-13.527 7.78L3 21l1.22-4.473A9 9 0 1 1 21 12ZM9.44 7.506c.17.007.36.015.539.412.123.272.33.78.495 1.184.12.297.219.538.244.588.06.12.1.26.02.419l-.033.067c-.06.122-.104.212-.206.33l-.124.149c-.082.1-.165.199-.236.27-.12.119-.245.248-.106.487.14.239.622 1.02 1.335 1.653.766.68 1.432.968 1.77 1.114.066.028.12.052.159.071.24.12.38.1.52-.06.14-.159.6-.697.76-.935.16-.24.32-.2.539-.12.22.08 1.4.657 1.64.777l.13.063c.168.08.28.135.33.215.059.1.059.578-.14 1.136-.2.557-1.18 1.095-1.62 1.134a4.592 4.592 0 0 0-.128.014c-.406.048-.92.108-2.75-.61-2.255-.886-3.74-3.078-4.047-3.53a2.459 2.459 0 0 0-.052-.075l-.002-.004c-.13-.173-.977-1.3-.977-2.465 0-1.1.543-1.676.793-1.941l.012-.014.035-.036a.883.883 0 0 1 .64-.299h.025c.151 0 .302 0 .434.006Z"/></symbol><symbol viewBox="0 0 24 24" id="youtube" xmlns="http://www.w3.org/2000/svg"><path d="M21.036 7.217a2.383 2.383 0 0 0-1.663-1.714c-1.475-.36-7.372-.36-7.372-.36s-5.897 0-7.371.394A2.383 2.383 0 0 0 2.967 7.25a24.857 24.857 0 0 0-.394 4.534c-.01 1.532.122 3.062.394 4.569A2.383 2.383 0 0 0 4.63 18c1.474.394 7.371.394 7.371.394s5.897 0 7.372-.394a2.383 2.383 0 0 0 1.663-1.715c.267-1.485.4-2.99.394-4.5a24.86 24.86 0 0 0-.394-4.568Z"/><path d="M10.073 14.588 15 11.785l-4.928-2.802v5.605Z"/></symbol><symbol viewBox="0 0 33 33" id="zoom" xmlns="http://www.w3.org/2000/svg"><path fill-rule="evenodd" clip-rule="evenodd" d="M15.175 6.95a8.476 8.476 0 1 0 5.91 14.553.667.667 0 0 1 .166-.166A8.476 8.476 0 0 0 15.175 6.95Zm7.392 14.926a9.772 9.772 0 0 0 2.417-6.45c0-5.417-4.392-9.809-9.81-9.809-5.417 0-9.809 4.392-9.809 9.81 0 5.417 4.392 9.81 9.81 9.81a9.772 9.772 0 0 0 6.449-2.418l4.508 4.508a.667.667 0 0 0 .943-.943l-4.508-4.508ZM15.175 11.33c.368 0 .666.299.666.667v2.762h2.762a.667.667 0 0 1 0 1.333h-2.762v2.762a.667.667 0 0 1-1.333 0v-2.762h-2.762a.667.667 0 0 1 0-1.333h2.762v-2.762c0-.368.299-.666.667-.666Z"/></symbol></svg>