<?xml version="1.0" encoding="utf-8"?><svg xmlns="http://www.w3.org/2000/svg" xmlns:xlink="http://www.w3.org/1999/xlink"><symbol fill="none" viewBox="0 0 72 72" id="sScienceBody-icon-1" xmlns="http://www.w3.org/2000/svg"><path fill-rule="evenodd" clip-rule="evenodd" d="M43.33 32.27h12.13a3.37 3.37 0 0 0 3.37-3.34v-7.21a3.37 3.37 0 0 0-3.36-3.34H43.33A3.38 3.38 0 0 0 40 21.72v7.21a3.38 3.38 0 0 0 3.33 3.34Zm-2.22-10.53a2.2 2.2 0 0 1 2.21-2.21h12.15a2.23 2.23 0 0 1 2.22 2.22v7.15a2.24 2.24 0 0 1-2.22 2.23H43.33a2.222 2.222 0 0 1-2.22-2.23v-7.16Z" fill="#fff"/><path d="M36.32 20.41H26.26a.58.58 0 0 0 0 1.15h10.06a.58.58 0 0 0 0-1.15ZM26.26 52.55h32a.54.54 0 0 1 .4.17.561.561 0 0 1 .17.4.571.571 0 0 1-.57.58h-32a.58.58 0 0 1 0-1.15Zm-.57-24.32a.57.57 0 0 0 .57.57h10.06a.57.57 0 0 0 .57-.57.62.62 0 0 0-.16-.41.6.6 0 0 0-.41-.16H26.26a.56.56 0 0 0-.57.57Zm0 10.41a.57.57 0 0 0 .57.57h32a.57.57 0 0 0 .57-.57.55.55 0 0 0-.57-.57h-32a.56.56 0 0 0-.57.57Zm.04 7.46a.56.56 0 0 1-.04-.22.57.57 0 0 1 .57-.57h32a.58.58 0 0 1 .529.79.56.56 0 0 1-.53.35h-32a.56.56 0 0 1-.529-.35Z" fill="#fff"/><path fill-rule="evenodd" clip-rule="evenodd" d="M64.356 59.605a5 5 0 0 1-3.536 1.465H13.28A6.47 6.47 0 0 1 7 54.65V25.37a5 5 0 0 1 5-5h4a.568.568 0 0 1 .57.57.56.56 0 0 1-.57.57h-4a3.87 3.87 0 0 0-3.87 3.85v29.29a5.29 5.29 0 0 0 10.57 0V16a5 5 0 0 1 5-5h37.12a5 5 0 0 1 5 5v40.07a5 5 0 0 1-1.464 3.535ZM19.85 54.65A6.4 6.4 0 0 1 18 59.16l-.76.77h43.59a3.86 3.86 0 0 0 3.84-3.85V16a3.85 3.85 0 0 0-3.84-3.85H23.69A3.85 3.85 0 0 0 19.85 16v38.65Z" fill="#fff"/></symbol><symbol fill="none" viewBox="0 0 72 72" id="sScienceBody-icon-2" xmlns="http://www.w3.org/2000/svg"><g fill="#fff"><path fill-rule="evenodd" clip-rule="evenodd" d="M41.1 32a.6.6 0 0 1-.3.52l-7.5 4.33a.6.6 0 0 1-.9-.52v-8.66a.6.6 0 0 1 .9-.52l7.5 4.33a.6.6 0 0 1 .3.52Zm-1.8 0-5.7-3.29v6.58L39.3 32Z"/><path fill-rule="evenodd" clip-rule="evenodd" d="M46.5 32c0 6.075-4.925 11-11 11s-11-4.925-11-11 4.925-11 11-11 11 4.925 11 11Zm-1.2 0c0 5.412-4.388 9.8-9.8 9.8-5.412 0-9.8-4.388-9.8-9.8 0-5.412 4.388-9.8 9.8-9.8 5.412 0 9.8 4.388 9.8 9.8Z"/><path d="M32.1 51.5v.9h28.4a.6.6 0 0 1 0 1.2H32.1v.9a.6.6 0 0 1-1.2 0v-3a.6.6 0 1 1 1.2 0ZM16.9 53a.6.6 0 0 1 .6-.6h11a.6.6 0 0 1 0 1.2h-11a.6.6 0 0 1-.6-.6Zm-3 1.5a.6.6 0 0 0 1.2 0v-3a.6.6 0 1 0-1.2 0v3Zm-3 0a.6.6 0 0 0 1.2 0v-3a.6.6 0 1 0-1.2 0v3Z"/><path fill-rule="evenodd" clip-rule="evenodd" d="M6.5 18a5 5 0 0 1 5-5h49a5 5 0 0 1 5 5v36a5 5 0 0 1-5 5h-49a5 5 0 0 1-5-5V18Zm5-3.8h49a3.8 3.8 0 0 1 3.8 3.8v36a3.8 3.8 0 0 1-3.8 3.8h-49A3.8 3.8 0 0 1 7.7 54V18a3.8 3.8 0 0 1 3.8-3.8Z"/></g></symbol><symbol fill="none" viewBox="0 0 16 16" id="telegram" xmlns="http://www.w3.org/2000/svg"><path d="m14.629 3.698-2.012 9.618c-.152.679-.548.848-1.11.528l-3.066-2.29-1.48 1.442c-.163.166-.3.305-.616.305l.22-3.165 5.683-5.204c.247-.223-.054-.347-.384-.123L4.839 9.29l-3.024-.959c-.658-.208-.67-.667.137-.986L13.78 2.727c.548-.208 1.027.124.849.971Z" fill="#000"/></symbol></svg>