<svg width="72" height="72" viewBox="0 0 72 72" fill="none" xmlns="http://www.w3.org/2000/svg">
<g id="icon/publish">
<g id="Union">
<path fill-rule="evenodd" clip-rule="evenodd" d="M41.0996 32C41.0996 32.2144 40.9852 32.4124 40.7996 32.5196L33.2996 36.8498C33.114 36.9569 32.8853 36.9569 32.6996 36.8498C32.514 36.7426 32.3996 36.5445 32.3996 36.3301V27.6699C32.3996 27.4555 32.514 27.2575 32.6996 27.1503C32.8853 27.0431 33.114 27.0431 33.2996 27.1503L40.7996 31.4804C40.9852 31.5876 41.0996 31.7857 41.0996 32ZM39.2996 32L33.5996 28.7091V35.2909L39.2996 32Z" fill="white"/>
<path fill-rule="evenodd" clip-rule="evenodd" d="M46.5 32C46.5 38.0751 41.5751 43 35.5 43C29.4249 43 24.5 38.0751 24.5 32C24.5 25.9249 29.4249 21 35.5 21C41.5751 21 46.5 25.9249 46.5 32ZM45.3 32C45.3 37.4124 40.9124 41.8 35.5 41.8C30.0876 41.8 25.7 37.4124 25.7 32C25.7 26.5876 30.0876 22.2 35.5 22.2C40.9124 22.2 45.3 26.5876 45.3 32Z" fill="white"/>
<path d="M32.0994 51.5V52.4L60.4994 52.4C60.8308 52.4 61.0994 52.6687 61.0994 53C61.0994 53.3314 60.8308 53.6 60.4994 53.6L32.0994 53.6V54.5C32.0994 54.8313 31.8308 55.1 31.4994 55.1C31.168 55.1 30.8994 54.8313 30.8994 54.5V51.5C30.8994 51.1686 31.168 50.9 31.4994 50.9C31.8308 50.9 32.0994 51.1686 32.0994 51.5Z" fill="white"/>
<path d="M16.8994 53C16.8994 52.6687 17.168 52.4 17.4994 52.4H28.4994C28.8308 52.4 29.0994 52.6687 29.0994 53C29.0994 53.3314 28.8308 53.6 28.4994 53.6H17.4994C17.168 53.6 16.8994 53.3314 16.8994 53Z" fill="white"/>
<path d="M13.8994 54.5C13.8994 54.8313 14.168 55.1 14.4994 55.1C14.8308 55.1 15.0994 54.8313 15.0994 54.5V51.5C15.0994 51.1686 14.8308 50.9 14.4994 50.9C14.168 50.9 13.8994 51.1686 13.8994 51.5V54.5Z" fill="white"/>
<path d="M10.8994 54.5C10.8994 54.8313 11.168 55.1 11.4994 55.1C11.8308 55.1 12.0994 54.8313 12.0994 54.5V51.5C12.0994 51.1686 11.8308 50.9 11.4994 50.9C11.168 50.9 10.8994 51.1686 10.8994 51.5V54.5Z" fill="white"/>
<path fill-rule="evenodd" clip-rule="evenodd" d="M6.5 18C6.5 15.2386 8.73858 13 11.5 13H60.5C63.2614 13 65.5 15.2386 65.5 18V54C65.5 56.7614 63.2614 59 60.5 59H11.5C8.73858 59 6.5 56.7614 6.5 54V18ZM11.5 14.2H60.5C62.5987 14.2 64.3 15.9013 64.3 18V54C64.3 56.0987 62.5987 57.8 60.5 57.8H11.5C9.40132 57.8 7.7 56.0987 7.7 54V18C7.7 15.9013 9.40132 14.2 11.5 14.2Z" fill="white"/>
</g>
</g>
</svg>
