<svg width="72" height="72" viewBox="0 0 72 72" fill="none" xmlns="http://www.w3.org/2000/svg">
<path fill-rule="evenodd" clip-rule="evenodd" d="M43.33 32.27H55.46C56.3486 32.27 57.2013 31.9191 57.8324 31.2936C58.4635 30.6681 58.8221 29.8186 58.83 28.93V21.72C58.8221 20.8332 58.4649 19.9852 57.836 19.3599C57.207 18.7347 56.3569 18.3826 55.47 18.38H43.33C42.4491 18.393 41.6082 18.7493 40.9862 19.3732C40.3642 19.9971 40.0103 20.8391 40 21.72V28.93C40.0103 29.8109 40.3642 30.6529 40.9862 31.2768C41.6082 31.9007 42.4491 32.257 43.33 32.27ZM41.11 21.74C41.1087 21.4494 41.1649 21.1614 41.2755 20.8927C41.3861 20.624 41.5489 20.3798 41.7543 20.1743C41.9598 19.9689 42.204 19.8061 42.4727 19.6955C42.7414 19.5849 43.0294 19.5287 43.32 19.53H55.47C56.058 19.5326 56.6211 19.7674 57.0369 20.1831C57.4526 20.5989 57.6874 21.162 57.69 21.75V28.9C57.6874 29.4889 57.453 30.0531 57.0375 30.4704C56.622 30.8878 56.0589 31.1247 55.47 31.13H43.33C43.0376 31.13 42.7481 31.0722 42.4781 30.9601C42.2081 30.8479 41.963 30.6834 41.7567 30.4762C41.5504 30.269 41.3871 30.0231 41.2761 29.7526C41.1651 29.4821 41.1087 29.1924 41.11 28.9V21.74Z" fill="white"/>
<path d="M36.3199 20.41H26.2599C26.1204 20.4284 25.9924 20.4969 25.8997 20.6027C25.807 20.7085 25.7559 20.8443 25.7559 20.985C25.7559 21.1257 25.807 21.2615 25.8997 21.3673C25.9924 21.4731 26.1204 21.5416 26.2599 21.56H36.3199C36.4593 21.5416 36.5873 21.4731 36.68 21.3673C36.7728 21.2615 36.8239 21.1257 36.8239 20.985C36.8239 20.8443 36.7728 20.7085 36.68 20.6027C36.5873 20.4969 36.4593 20.4284 36.3199 20.41Z" fill="white"/>
<path d="M26.2599 52.55H58.2599C58.3347 52.5491 58.4089 52.5637 58.4777 52.593C58.5466 52.6222 58.6086 52.6655 58.6599 52.72C58.7134 52.772 58.7561 52.8341 58.7853 52.9028C58.8144 52.9715 58.8296 53.0454 58.8299 53.12C58.8312 53.1957 58.8174 53.2709 58.7894 53.3412C58.7613 53.4115 58.7196 53.4755 58.6665 53.5295C58.6134 53.5835 58.5501 53.6264 58.4803 53.6557C58.4105 53.6849 58.3356 53.7 58.2599 53.7H26.2599C26.1204 53.6816 25.9924 53.6131 25.8997 53.5073C25.807 53.4015 25.7559 53.2657 25.7559 53.125C25.7559 52.9843 25.807 52.8485 25.8997 52.7427C25.9924 52.6369 26.1204 52.5684 26.2599 52.55Z" fill="white"/>
<path d="M25.6895 28.23C25.6895 28.3812 25.7496 28.5262 25.8565 28.6331C25.9634 28.74 26.1084 28.8 26.2595 28.8H36.3195C36.4707 28.8 36.6157 28.74 36.7226 28.6331C36.8295 28.5262 36.8895 28.3812 36.8895 28.23C36.8881 28.0784 36.8312 27.9325 36.7295 27.82C36.6181 27.7167 36.4715 27.6595 36.3195 27.66H26.2595C26.1843 27.6586 26.1096 27.6725 26.0398 27.7006C25.9701 27.7288 25.9067 27.7707 25.8535 27.8239C25.8003 27.8771 25.7583 27.9405 25.7302 28.0103C25.702 28.08 25.6882 28.1548 25.6895 28.23Z" fill="white"/>
<path d="M25.6895 38.64C25.6895 38.7912 25.7496 38.9362 25.8565 39.0431C25.9634 39.15 26.1084 39.21 26.2595 39.21H58.2595C58.4107 39.21 58.5557 39.15 58.6626 39.0431C58.7695 38.9362 58.8295 38.7912 58.8295 38.64C58.8323 38.5644 58.8195 38.489 58.7919 38.4186C58.7642 38.3482 58.7223 38.2842 58.6688 38.2307C58.6153 38.1772 58.5514 38.1353 58.4809 38.1077C58.4105 38.08 58.3351 38.0672 58.2595 38.07H26.2595C26.1843 38.0686 26.1096 38.0825 26.0398 38.1106C25.9701 38.1388 25.9067 38.1807 25.8535 38.2339C25.8003 38.2871 25.7583 38.3505 25.7302 38.4203C25.702 38.49 25.6882 38.5648 25.6895 38.64Z" fill="white"/>
<path d="M25.7302 46.0997C25.702 46.03 25.6882 45.9552 25.6895 45.88C25.6895 45.7288 25.7496 45.5838 25.8565 45.4769C25.9634 45.37 26.1084 45.31 26.2595 45.31H58.2595C58.4099 45.3126 58.5534 45.3734 58.6597 45.4798C58.7661 45.5861 58.827 45.7296 58.8295 45.88C58.8309 45.9552 58.8171 46.03 58.7889 46.0997C58.7607 46.1695 58.7188 46.2329 58.6656 46.2861C58.6124 46.3393 58.549 46.3812 58.4793 46.4094C58.4095 46.4375 58.3348 46.4514 58.2595 46.45H26.2595C26.1843 46.4514 26.1096 46.4375 26.0398 46.4094C25.9701 46.3812 25.9067 46.3393 25.8535 46.2861C25.8003 46.2329 25.7583 46.1695 25.7302 46.0997Z" fill="white"/>
<path fill-rule="evenodd" clip-rule="evenodd" d="M64.3555 59.6055C63.4179 60.5432 62.1461 61.07 60.82 61.07H13.28C11.6058 61.0209 10.0159 60.3244 8.84469 59.1271C7.67348 57.9297 7.01222 56.3249 7 54.65V25.37C7 24.0439 7.52678 22.7721 8.46447 21.8345C9.40215 20.8968 10.6739 20.37 12 20.37H16C16.0749 20.37 16.149 20.3847 16.2181 20.4134C16.2873 20.442 16.3501 20.484 16.4031 20.5369C16.456 20.5899 16.498 20.6527 16.5266 20.7219C16.5553 20.791 16.57 20.8651 16.57 20.94C16.5714 21.0152 16.5575 21.09 16.5294 21.1597C16.5012 21.2295 16.4593 21.2929 16.4061 21.3461C16.3529 21.3993 16.2895 21.4412 16.2197 21.4694C16.15 21.4975 16.0752 21.5114 16 21.51H12C10.9771 21.51 9.99574 21.915 9.27054 22.6364C8.54535 23.3579 8.13529 24.3371 8.13 25.36V54.65C8.18925 56.0119 8.77196 57.2983 9.75661 58.2411C10.7413 59.1838 12.0518 59.7101 13.415 59.7101C14.7782 59.7101 16.0887 59.1838 17.0734 58.2411C18.058 57.2983 18.6407 56.0119 18.7 54.65V16C18.7 14.6739 19.2268 13.4021 20.1645 12.4645C21.1021 11.5268 22.3739 11 23.7 11H60.82C62.1461 11 63.4179 11.5268 64.3555 12.4645C65.2932 13.4021 65.82 14.6739 65.82 16V56.07C65.82 57.3961 65.2932 58.6679 64.3555 59.6055ZM19.85 54.65C19.8524 56.3385 19.1875 57.9596 18 59.16L17.24 59.93H60.83C61.8485 59.9247 62.8237 59.5171 63.543 58.7959C64.2623 58.0748 64.6674 57.0985 64.67 56.08V16C64.67 14.9806 64.2658 14.0029 63.5459 13.2812C62.826 12.5594 61.8493 12.1526 60.83 12.15H23.69C22.6707 12.1526 21.694 12.5594 20.9741 13.2812C20.2542 14.0029 19.85 14.9806 19.85 16V54.65Z" fill="white"/>
</svg>
