<svg width="24" height="24" viewBox="0 0 24 24" fill="none" xmlns="http://www.w3.org/2000/svg">
<path d="M14 2H6C5.46957 2 4.96086 2.21071 4.58579 2.58579C4.21071 2.96086 4 3.46957 4 4V20C4 20.5304 4.21071 21.0391 4.58579 21.4142C4.96086 21.7893 5.46957 22 6 22H18C18.5304 22 19.0391 21.7893 19.4142 21.4142C19.7893 21.0391 20 20.5304 20 20V8M14 2L20 8M14 2V8H20" stroke="#54B565" stroke-linecap="round" stroke-linejoin="round"/>
<path fill-rule="evenodd" clip-rule="evenodd" d="M6.91455 16.144H7.94678C8.33187 16.144 8.65885 16.0825 8.92773 15.9595C9.19889 15.8364 9.40511 15.6598 9.54639 15.4297C9.68766 15.1995 9.7583 14.9238 9.7583 14.6025C9.7583 14.2972 9.68766 14.026 9.54639 13.7891C9.40511 13.5498 9.19889 13.363 8.92773 13.2285C8.65885 13.0918 8.33187 13.0234 7.94678 13.0234H6.05664V18H6.91455V16.144ZM6.91455 15.4639V13.707H7.94678C8.17236 13.707 8.35466 13.7492 8.49365 13.8335C8.63265 13.9178 8.73405 14.0295 8.79785 14.1685C8.86393 14.3052 8.89697 14.4521 8.89697 14.6094C8.89697 14.7757 8.86393 14.9238 8.79785 15.0537C8.73405 15.1813 8.63265 15.2816 8.49365 15.3545C8.35466 15.4274 8.17236 15.4639 7.94678 15.4639H6.91455Z" fill="#54B565"/>
<path fill-rule="evenodd" clip-rule="evenodd" d="M11.9731 18H10.5273V13.0234H12.0039C12.3343 13.0234 12.6362 13.0793 12.9097 13.1909C13.1831 13.3003 13.4189 13.4587 13.6172 13.666C13.8177 13.8734 13.9715 14.1217 14.0786 14.4111C14.1857 14.7005 14.2393 15.0241 14.2393 15.3818V15.645C14.2393 16.0028 14.1857 16.3263 14.0786 16.6157C13.9715 16.9051 13.8177 17.1535 13.6172 17.3608C13.4167 17.5659 13.1774 17.7243 12.8994 17.8359C12.6237 17.9453 12.3149 18 11.9731 18ZM11.9731 17.3198H11.3853V13.707H12.0039C12.2249 13.707 12.4198 13.7435 12.5884 13.8164C12.7593 13.8893 12.9028 13.9964 13.019 14.1377C13.1375 14.279 13.2264 14.4533 13.2856 14.6606C13.3472 14.868 13.3779 15.1061 13.3779 15.375V15.645C13.3779 15.9914 13.3244 16.2899 13.2173 16.5405C13.1125 16.7912 12.9552 16.9837 12.7456 17.1182C12.5382 17.2526 12.2808 17.3198 11.9731 17.3198Z" fill="#54B565"/>
<path d="M15.9575 13.707V15.2007H17.9878V15.8809H15.9575V18H15.0996V13.0234H18.2715V13.707H15.9575Z" fill="#54B565"/>
</svg>
