<svg width="16" height="16" viewBox="0 0 16 16" fill="none" xmlns="http://www.w3.org/2000/svg">
<g id="View/grid">
<path id="Vector (Stroke)" fill-rule="evenodd" clip-rule="evenodd" d="M2.52344 2.85677C2.52344 2.67268 2.67268 2.52344 2.85677 2.52344H6.85677C7.04087 2.52344 7.1901 2.67268 7.1901 2.85677V6.85677C7.1901 7.04087 7.04087 7.1901 6.85677 7.1901H2.85677C2.67268 7.1901 2.52344 7.04087 2.52344 6.85677V2.85677ZM3.1901 3.1901V6.52344H6.52344V3.1901H3.1901ZM8.80915 2.85677C8.80915 2.67268 8.95839 2.52344 9.14249 2.52344H13.1425C13.3266 2.52344 13.4758 2.67268 13.4758 2.85677V6.85677C13.4758 7.04087 13.3266 7.1901 13.1425 7.1901H9.14249C8.95839 7.1901 8.80915 7.04087 8.80915 6.85677V2.85677ZM9.47582 3.1901V6.52344H12.8092V3.1901H9.47582ZM2.52344 9.14249C2.52344 8.95839 2.67268 8.80915 2.85677 8.80915H6.85677C7.04087 8.80915 7.1901 8.95839 7.1901 9.14249V13.1425C7.1901 13.3266 7.04087 13.4758 6.85677 13.4758H2.85677C2.67268 13.4758 2.52344 13.3266 2.52344 13.1425V9.14249ZM3.1901 9.47582V12.8092H6.52344V9.47582H3.1901ZM8.80915 9.14249C8.80915 8.95839 8.95839 8.80915 9.14249 8.80915H13.1425C13.3266 8.80915 13.4758 8.95839 13.4758 9.14249V13.1425C13.4758 13.3266 13.3266 13.4758 13.1425 13.4758H9.14249C8.95839 13.4758 8.80915 13.3266 8.80915 13.1425V9.14249ZM9.47582 9.47582V12.8092H12.8092V9.47582H9.47582Z" fill="white"/>
</g>
</svg>
