<svg width="16" height="16" viewBox="0 0 16 16" fill="none" xmlns="http://www.w3.org/2000/svg">
<g id="Navigations/map">
<path id="Vector (Stroke)" fill-rule="evenodd" clip-rule="evenodd" d="M5.54881 1.99704C5.64558 1.94175 5.76358 1.93847 5.86326 1.98832L10.2751 4.19425L14.1202 1.99704C14.2234 1.93809 14.3502 1.93851 14.4529 1.99816C14.5557 2.0578 14.619 2.16764 14.619 2.28646V11.4293C14.619 11.5489 14.5549 11.6594 14.451 11.7187L10.451 14.0044C10.3542 14.0597 10.2362 14.063 10.1366 14.0132L5.72468 11.8072L1.87957 14.0044C1.7764 14.0634 1.64966 14.063 1.54688 14.0033C1.44411 13.9437 1.38086 13.8339 1.38086 13.715V4.57217C1.38086 4.45255 1.44495 4.34211 1.54881 4.28276L5.54881 1.99704ZM6.04753 11.2233L9.95229 13.1757V4.77818L6.04753 2.8258V11.2233ZM5.38086 2.86085V11.2359L2.04753 13.1406V4.76561L5.38086 2.86085ZM10.619 4.76561V13.1406L13.9523 11.2359V2.86085L10.619 4.76561Z" fill="white"/>
</g>
</svg>
