<svg width="24" height="24" viewBox="0 0 24 24" fill="none" xmlns="http://www.w3.org/2000/svg">
<path d="M10.7767 7.69462L10.7932 7.71773L10.8122 7.73882C10.9549 7.89699 10.9849 8.03402 10.9704 8.16908C10.9533 8.32786 10.8673 8.53047 10.6876 8.77261C10.6053 8.88356 10.5065 8.99808 10.3786 9.13257C10.3172 9.19704 10.2695 9.24547 10.1631 9.35194L9.54986 9.96545C9.40127 10.114 9.39619 10.2935 9.39569 10.3404C9.39494 10.4104 9.40678 10.471 9.41591 10.5097C9.43509 10.5909 9.46708 10.6752 9.50067 10.7526C9.57013 10.9125 9.67752 11.1128 9.81622 11.3352C10.095 11.7823 10.5216 12.3531 11.0828 12.9148C11.6437 13.4762 12.2142 13.9031 12.6613 14.182C12.8837 14.3207 13.084 14.4282 13.2441 14.4977C13.3215 14.5313 13.406 14.5633 13.4874 14.5824C13.5262 14.5916 13.587 14.6034 13.6571 14.6025C13.7045 14.6019 13.8833 14.5963 14.0314 14.4482L13.6777 14.0947L14.0314 14.4482L14.6444 13.8349L14.6445 13.8349C14.9783 13.5007 15.1269 13.3688 15.327 13.2375C15.535 13.1011 15.7156 13.0394 15.86 13.0328C15.9889 13.0268 16.1182 13.0621 16.257 13.1862L16.2773 13.2043L16.2994 13.2201C17.8428 14.324 18.67 14.9701 19.0572 15.3723C19.6834 16.023 19.6098 17.0447 19.059 17.6269C18.8177 17.8819 18.5087 18.1911 18.1402 18.5464L18.1401 18.5463L18.1336 18.5529C17.1862 19.5007 15.6536 19.7447 13.8206 19.2526C11.9979 18.7632 9.97587 17.5633 8.20673 15.7926C6.43709 14.0214 5.23777 11.9982 4.74807 10.1753C4.25553 8.34182 4.49863 6.81028 5.44351 5.86499L5.44352 5.865L5.44616 5.86232C5.84734 5.45487 5.97841 5.32389 6.36905 4.93901C6.92272 4.39352 7.99716 4.31529 8.6289 4.93928C9.03692 5.3423 9.7201 6.21633 10.7767 7.69462Z" stroke="white"/>
</svg>
