<svg width="24" height="24" viewBox="0 0 24 24" fill="none" xmlns="http://www.w3.org/2000/svg">
<path d="M22.1128 3.2207V4.49934C20.3036 5.16041 18.8858 6.2042 17.8594 7.63071C16.833 9.03983 16.3198 10.5098 16.3198 12.0407C16.3198 12.3713 16.372 12.6148 16.4764 12.7714C16.546 12.8758 16.6242 12.9279 16.7112 12.9279C16.7982 12.9279 16.9287 12.8671 17.1027 12.7453C17.6593 12.3452 18.3639 12.1451 19.2163 12.1451C20.2079 12.1451 21.0864 12.5539 21.8519 13.3716C22.6173 14.1718 23.0001 15.1286 23.0001 16.242C23.0001 17.4075 22.5564 18.4339 21.6692 19.3211C20.7994 20.2084 19.7382 20.652 18.4857 20.652C17.0244 20.652 15.7631 20.0518 14.7019 18.8514C13.6408 17.6511 13.1102 16.0419 13.1102 14.0239C13.1102 11.6754 13.8321 9.57042 15.276 7.709C16.7199 5.84757 18.9989 4.35147 22.1128 3.2207ZM9.56127 3.2207V4.49934C7.75204 5.16041 6.33423 6.2042 5.30783 7.63071C4.28144 9.03983 3.76825 10.5098 3.76825 12.0407C3.76825 12.3713 3.82043 12.6148 3.92481 12.7714C3.9944 12.8758 4.07268 12.9279 4.15967 12.9279C4.24665 12.9279 4.37712 12.8671 4.55109 12.7453C5.10777 12.3452 5.81233 12.1451 6.66476 12.1451C7.65636 12.1451 8.53488 12.5539 9.30033 13.3716C10.0658 14.1718 10.4485 15.1286 10.4485 16.242C10.4485 17.4075 10.0049 18.4339 9.11766 19.3211C8.24784 20.2084 7.18665 20.652 5.93411 20.652C4.4728 20.652 3.21156 20.0518 2.15037 18.8514C1.08919 17.6511 0.558594 16.0419 0.558594 14.0239C0.558594 11.6754 1.28055 9.57042 2.72446 7.709C4.16836 5.84757 6.4473 4.35147 9.56127 3.2207Z" fill="#54B565"/>
</svg>
