<svg width="24" height="24" viewBox="0 0 24 24" fill="none" xmlns="http://www.w3.org/2000/svg">
<path d="M15.8264 8.82668L15.5806 8.39129L15.5804 8.39141L15.5795 8.3919L15.5761 8.39382L15.5627 8.40142L15.5102 8.43105L15.3104 8.54394C15.138 8.64142 14.8908 8.78122 14.5919 8.95056C13.9941 9.28921 13.1891 9.74606 12.3605 10.2187C10.717 11.1562 8.94332 12.177 8.5481 12.4421L8.54809 12.4421L8.54481 12.4443C7.96609 12.8392 7.50278 12.9883 7.13978 12.9805C6.92064 12.9758 6.55902 12.91 6.12341 12.8015C5.69933 12.6958 5.24223 12.5593 4.84942 12.4324C4.71366 12.3886 4.58778 12.3492 4.47113 12.3127C4.13334 12.207 3.87288 12.1255 3.67372 12.0297C3.59923 11.9938 3.55261 11.9643 3.52445 11.9433C3.54361 11.9238 3.57334 11.8971 3.61866 11.8637C3.7627 11.7574 3.99968 11.6313 4.35242 11.4919L4.36732 11.4858C8.93136 9.50974 11.9705 8.2089 13.4886 7.58144C15.664 6.68229 16.966 6.15953 17.7963 5.86015C18.635 5.55769 18.9406 5.50362 19.1456 5.50003C19.1712 5.49959 19.2341 5.50312 19.3029 5.51945C19.375 5.53656 19.4153 5.55863 19.4296 5.57019L19.7435 5.18096L19.4296 5.57019C19.4375 5.57657 19.4435 5.58375 19.4502 5.59873C19.4586 5.61727 19.466 5.64342 19.4735 5.68709C19.4801 5.72552 19.4901 5.80572 19.4958 5.9023C19.5015 5.99943 19.5017 6.09429 19.4947 6.16693C19.2616 8.60102 18.2465 14.5491 17.7276 17.3058C17.5175 18.4217 17.165 18.4895 17.1036 18.4951C16.7957 18.5233 16.5032 18.4281 16.1506 18.2222C15.9729 18.1185 15.7911 17.9934 15.5888 17.8506C15.5562 17.8276 15.523 17.8041 15.4893 17.7802C15.3188 17.6594 15.1345 17.5288 14.9423 17.4036C14.2573 16.9574 13.7213 16.5954 13.1877 16.2344C13.1641 16.2184 13.1404 16.2024 13.1168 16.1863C12.6067 15.8411 12.0924 15.4931 11.4499 15.0724C11.0894 14.8363 10.9463 14.6688 10.8954 14.5719C10.8638 14.5117 10.8636 14.4799 10.8921 14.4152C10.9359 14.3159 11.0374 14.1849 11.227 13.9931C11.3077 13.9116 11.3949 13.8281 11.4911 13.7359C11.5034 13.7241 11.5158 13.7122 11.5284 13.7001C11.6373 13.5957 11.7551 13.482 11.8722 13.3612C11.9802 13.2497 13.0487 12.2125 14.1042 11.1898C14.6288 10.6815 15.1463 10.1805 15.5326 9.80667L15.9982 9.35617L16.1281 9.23047L16.1623 9.19741L16.1711 9.18894L16.1733 9.1868L16.1738 9.18626L16.174 9.18613L15.8264 8.82668ZM15.8264 8.82668L15.5807 8.39124C15.7998 8.26759 16.0766 8.32598 16.2271 8.52757C16.3776 8.72917 16.3549 9.01119 16.174 9.18609L15.8264 8.82668Z" stroke="white" stroke-linejoin="round"/>
</svg>
