<svg width="16" height="16" viewBox="0 0 16 16" fill="none" xmlns="http://www.w3.org/2000/svg">
<g id="icon/Social/Twitter">
<path id="Twitter" d="M14 4.47048C13.5538 4.66322 13.0782 4.79097 12.5825 4.853C13.0925 4.55318 13.4818 4.08205 13.6648 3.51417C13.1892 3.79331 12.6643 3.99048 12.1047 4.10051C11.6532 3.62715 11.0098 3.33398 10.3077 3.33398C8.94575 3.33398 7.84925 4.42248 7.84925 5.75688C7.84925 5.94888 7.86575 6.13349 7.90625 6.30925C5.861 6.21103 4.05125 5.24586 2.8355 3.77558C2.62325 4.13817 2.49875 4.55318 2.49875 4.99995C2.49875 5.83885 2.9375 6.58248 3.5915 7.013C3.19625 7.00562 2.8085 6.89263 2.48 6.71466C2.48 6.72205 2.48 6.73165 2.48 6.74125C2.48 7.91835 3.33275 8.89608 4.451 9.12131C4.25075 9.17522 4.0325 9.20106 3.806 9.20106C3.6485 9.20106 3.4895 9.1922 3.34025 9.15971C3.659 10.119 4.5635 10.8242 5.639 10.8471C4.802 11.4918 3.73925 11.8802 2.58875 11.8802C2.387 11.8802 2.1935 11.8713 2 11.847C3.08975 12.5389 4.38125 12.934 5.774 12.934C10.301 12.934 12.776 9.24168 12.776 6.04118C12.776 5.93411 12.7723 5.83072 12.767 5.72808C13.2552 5.38691 13.6655 4.96082 14 4.47048Z" fill="#000E11"/>
</g>
</svg>
