<svg width="16" height="16" viewBox="0 0 16 16" fill="none" xmlns="http://www.w3.org/2000/svg">
<g id="icon/Social/Vkontakte  simbol">
<path id="Vector" fill-rule="evenodd" clip-rule="evenodd" d="M13.7176 5.16566C13.8066 4.88381 13.7176 4.67883 13.3236 4.67883H12.0146C11.6842 4.67883 11.5317 4.85819 11.4427 5.05036C11.4427 5.05036 10.7692 6.69021 9.82869 7.75356C9.52368 8.06103 9.38388 8.16352 9.21866 8.16352C9.1297 8.16352 9.01532 8.06103 9.01532 7.77918V5.15285C9.01532 4.81975 8.91365 4.66602 8.63405 4.66602H6.57521C6.37187 4.66602 6.24478 4.81975 6.24478 4.97349C6.24478 5.29377 6.71501 5.37064 6.76584 6.26744V8.21477C6.76584 8.63755 6.68959 8.71441 6.52437 8.71441C6.07956 8.71441 4.9993 7.06175 4.35115 5.17847C4.22406 4.80694 4.09697 4.66602 3.76654 4.66602H2.44481C2.06354 4.66602 2 4.84537 2 5.03755C2 5.38345 2.44481 7.1258 4.07155 9.43185C5.15181 11.0077 6.68959 11.8532 8.07486 11.8532C8.91365 11.8532 9.01532 11.661 9.01532 11.3407V10.1493C9.01532 9.76495 9.09157 9.70089 9.35846 9.70089C9.5491 9.70089 9.89223 9.80338 10.6675 10.5593C11.5571 11.4561 11.7096 11.866 12.2053 11.866H13.5143C13.8955 11.866 14.0735 11.6738 13.9718 11.3023C13.8574 10.9308 13.4253 10.3927 12.8661 9.75214C12.5611 9.39342 12.1036 8.99627 11.9638 8.80409C11.7732 8.54787 11.824 8.44537 11.9638 8.21477C11.9511 8.21477 13.5524 5.93434 13.7176 5.16566Z" fill="#000E11"/>
</g>
</svg>
