<svg width="24" height="24" viewBox="0 0 24 24" fill="none" xmlns="http://www.w3.org/2000/svg">
<path d="M17.8211 12.7769L17.8151 12.7686L17.8087 12.7605C17.7849 12.7302 17.7691 12.7072 17.7587 12.6906C17.7734 12.6628 17.7954 12.626 17.8308 12.5698L17.8473 12.5467L17.9172 12.4479C17.9774 12.3626 18.0634 12.2399 18.1672 12.0895C18.3747 11.7891 18.6541 11.3771 18.9412 10.9321C19.2276 10.4882 19.525 10.006 19.7666 9.56637C19.9949 9.15107 20.202 8.72361 20.2791 8.393C20.3478 8.15642 20.3883 7.81372 20.1787 7.51712C19.9581 7.20486 19.5892 7.12305 19.2602 7.12305H17.4917C17.174 7.12305 16.901 7.2083 16.681 7.37286C16.467 7.53294 16.3414 7.7396 16.2635 7.91951L16.2634 7.91948L16.2605 7.92654L16.2605 7.92659L16.2605 7.92668L16.2602 7.92727L16.2587 7.93096L16.2518 7.94733C16.2455 7.96216 16.2358 7.98469 16.2229 8.01421C16.1972 8.07326 16.1585 8.1602 16.1081 8.26934C16.007 8.48784 15.8591 8.79423 15.6724 9.14343C15.2978 9.8441 14.7803 10.6926 14.1871 11.3516C14.09 11.4475 14.0124 11.5205 13.9492 11.5762V8.26645C13.9492 8.01965 13.9184 7.71775 13.7361 7.47646C13.5265 7.19895 13.2176 7.12305 12.9439 7.12305H10.1647H9.71476H9.21476V7.62305V8.02539C9.21476 8.27358 9.31433 8.45896 9.40533 8.5893C9.44791 8.65029 9.49508 8.70811 9.53181 8.75315L9.53231 8.75376L9.53663 8.75905C9.57485 8.80589 9.60744 8.84585 9.64006 8.88976C9.75396 9.04309 9.88876 9.26878 9.91739 9.74579V12.3066C9.89953 12.2892 9.88087 12.2704 9.86142 12.2503C9.65809 12.0393 9.41265 11.7187 9.14881 11.306C8.62295 10.4835 8.059 9.35075 7.63888 8.13971L7.63847 8.13852C7.5497 7.8847 7.43181 7.61099 7.21343 7.41198C6.97024 7.19035 6.67621 7.12305 6.37494 7.12305H4.60637H4H3.5V7.62305V8.11816C3.5 8.30473 3.5532 8.58939 3.64592 8.92585C3.74265 9.27684 3.89338 9.72291 4.11262 10.2468C4.55111 11.2945 5.26728 12.6622 6.38457 14.2126C7.91831 16.3905 10.1163 17.6253 12.186 17.6253C12.748 17.6253 13.2034 17.5703 13.5157 17.363C13.9085 17.1022 13.9492 16.705 13.9492 16.4445V14.8747C13.9492 14.8379 13.9499 14.8057 13.9511 14.7777C14.0694 14.7947 14.4336 14.915 15.3246 15.7646C15.6142 16.0513 15.8439 16.299 16.0382 16.5121C16.0737 16.551 16.1085 16.5894 16.1427 16.627C16.2917 16.7911 16.4284 16.9416 16.5532 17.0655C16.7087 17.2198 16.8763 17.3646 17.0746 17.4674C17.2837 17.5757 17.5024 17.6253 17.7443 17.6253H19.5129C19.894 17.6253 20.3722 17.5075 20.5804 17.0486C20.7006 16.7835 20.6804 16.4967 20.6046 16.2401L20.6047 16.24L20.6007 16.2276C20.4945 15.9 20.2698 15.5444 20.005 15.1897C19.7343 14.8272 19.3909 14.4257 19.0094 14.0008C18.7861 13.7403 18.5129 13.4753 18.2882 13.2575C18.0397 13.0165 17.8819 12.8612 17.8211 12.7769ZM10.1435 12.4838C10.1441 12.484 10.1445 12.4841 10.1445 12.4842L10.1435 12.4838Z" stroke="white"/>
</svg>
