<svg width="24" height="24" viewBox="0 0 24 24" fill="none" xmlns="http://www.w3.org/2000/svg">
<path d="M14.39 15C11.4178 15 9 12.5822 9 9.61C9 8.72205 9.72205 8 10.61 8C10.701 8 10.791 8.0077 10.8781 8.02275C10.9632 8.0364 11.0485 8.0581 11.1318 8.0868C11.2456 8.12635 11.3313 8.2219 11.3583 8.3395L11.8375 10.4269C11.8641 10.5417 11.8308 10.6621 11.7489 10.7475C11.7013 10.7972 11.7002 10.7982 11.2662 11.0254C11.6176 11.7863 12.2284 12.395 12.9739 12.7345C13.2014 12.3001 13.2028 12.2987 13.2525 12.2511C13.3379 12.1692 13.459 12.1373 13.5731 12.1625L15.6608 12.6417C15.7781 12.6686 15.8736 12.754 15.9128 12.8678C15.9415 12.9504 15.9633 13.0358 15.9776 13.1236C15.9923 13.2101 16 13.2997 16 13.39C16 14.2779 15.2776 15 14.39 15" stroke="white"/>
<path d="M6.28355 15.6973L6.76621 15.8278L6.826 15.6068L6.69769 15.4171L6.28355 15.6973ZM5.50379 18.5798L5.02114 18.4493L4.79551 19.2833L5.63108 19.0634L5.50379 18.5798ZM8.4397 17.8069L8.71075 17.3868L8.52555 17.2673L8.31241 17.3234L8.4397 17.8069ZM19.5 11.5C19.5 15.366 16.366 18.5 12.5 18.5V19.5C16.9183 19.5 20.5 15.9183 20.5 11.5H19.5ZM12.5 4.5C16.366 4.5 19.5 7.63401 19.5 11.5H20.5C20.5 7.08172 16.9183 3.5 12.5 3.5V4.5ZM5.5 11.5C5.5 7.63401 8.63401 4.5 12.5 4.5V3.5C8.08172 3.5 4.5 7.08172 4.5 11.5H5.5ZM6.69769 15.4171C5.94157 14.2994 5.5 12.952 5.5 11.5H4.5C4.5 13.158 5.00491 14.6995 5.86942 15.9774L6.69769 15.4171ZM5.98644 18.7104L6.76621 15.8278L5.8009 15.5667L5.02114 18.4493L5.98644 18.7104ZM8.31241 17.3234L5.3765 18.0963L5.63108 19.0634L8.56699 18.2905L8.31241 17.3234ZM12.5 18.5C11.1028 18.5 9.80264 18.0912 8.71075 17.3868L8.16865 18.2271C9.41726 19.0326 10.9048 19.5 12.5 19.5V18.5Z" fill="white"/>
</svg>
