<svg width="24" height="24" viewBox="0 0 24 24" fill="none" xmlns="http://www.w3.org/2000/svg">
<path fill-rule="evenodd" clip-rule="evenodd" d="M10.2359 13.7787C11.3405 14.8833 12.8386 15.5038 14.4007 15.5038C14.9595 15.4933 15.4915 15.2626 15.8811 14.8618C16.357 14.3722 16.5395 13.6831 16.4807 13.0138C16.4066 12.6059 16.2093 12.2266 15.7807 12.1238L13.6907 11.6438C13.3479 11.5677 12.9576 11.7204 12.7807 12.0238C12.4557 11.8035 12.1771 11.5215 11.9607 11.1938C12.2733 11.0316 12.4162 10.6255 12.3307 10.2838L11.8607 8.20383C11.7295 7.65257 11.1354 7.45862 10.6207 7.50383C10.0619 7.50646 9.52679 7.7296 9.13165 8.12474C8.73652 8.51987 8.51337 9.05503 8.51074 9.61383C8.51074 11.176 9.13129 12.6741 10.2359 13.7787ZM9.83585 8.82894C10.1361 8.52866 10.5056 8.50383 10.9007 8.50383L11.3007 10.4338L11.0007 10.5838L10.5807 10.8038L10.7807 11.2438C11.1914 12.113 11.9014 12.8053 12.7807 13.1938L13.2107 13.3938L13.4307 12.9738L13.5807 12.6738L15.5107 13.1138C15.5735 13.485 15.4504 13.9139 15.1856 14.1787C14.9775 14.3869 14.6951 14.5038 14.4007 14.5038C13.1038 14.5038 11.86 13.9886 10.943 13.0716C10.0259 12.1545 9.51074 10.9107 9.51074 9.61383C9.51074 9.31944 9.62769 9.0371 9.83585 8.82894Z" fill="white"/>
<path fill-rule="evenodd" clip-rule="evenodd" d="M12.5 3.5C8.08172 3.5 4.5 7.08172 4.5 11.5C4.5 13.075 4.9556 14.5449 5.74226 15.7835L4.79551 19.2833L8.35794 18.3455C9.56645 19.0782 10.9847 19.5 12.5 19.5C16.9183 19.5 20.5 15.9183 20.5 11.5C20.5 7.08172 16.9183 3.5 12.5 3.5ZM5.5 11.5C5.5 7.63401 8.63401 4.5 12.5 4.5C16.366 4.5 19.5 7.63401 19.5 11.5C19.5 15.366 16.366 18.5 12.5 18.5C11.1028 18.5 9.80264 18.0912 8.71075 17.3868L8.52555 17.2673L6.21206 17.8763L6.826 15.6068L6.69769 15.4171C5.94157 14.2994 5.5 12.952 5.5 11.5Z" fill="white"/>
</svg>
