<svg width="24" height="24" viewBox="0 0 24 24" fill="none" xmlns="http://www.w3.org/2000/svg">
<path d="M21.0356 7.21686C20.9338 6.81007 20.7264 6.43735 20.4345 6.13635C20.1425 5.83536 19.7763 5.61674 19.3728 5.50258C17.8985 5.14258 12.0013 5.14258 12.0013 5.14258C12.0013 5.14258 6.10418 5.14258 4.6299 5.53686C4.2264 5.65102 3.86016 5.86964 3.5682 6.17064C3.27623 6.47164 3.06886 6.84436 2.96704 7.25115C2.69723 8.74734 2.56524 10.2651 2.57276 11.7854C2.56314 13.3172 2.69513 14.8466 2.96704 16.354C3.07929 16.7482 3.2913 17.1067 3.58259 17.395C3.87388 17.6833 4.2346 17.8916 4.6299 17.9997C6.10418 18.394 12.0013 18.394 12.0013 18.394C12.0013 18.394 17.8985 18.394 19.3728 17.9997C19.7763 17.8856 20.1425 17.6669 20.4345 17.3659C20.7264 17.0649 20.9338 16.6922 21.0356 16.2854C21.3033 14.8005 21.4353 13.2943 21.4299 11.7854C21.4395 10.2537 21.3075 8.72432 21.0356 7.21686Z" stroke="white" stroke-linecap="round" stroke-linejoin="round"/>
<path d="M10.0728 14.5883L15.0013 11.7854L10.0728 8.98258V14.5883Z" stroke="white" stroke-linecap="round" stroke-linejoin="round"/>
</svg>
