<svg width="33" height="33" viewBox="0 0 33 33" fill="none" xmlns="http://www.w3.org/2000/svg">
<g id="Navigations/zoom-in">
<path id="Vector (Stroke)" fill-rule="evenodd" clip-rule="evenodd" d="M15.1748 6.95052C10.4935 6.95052 6.69857 10.7454 6.69857 15.4267C6.69857 20.108 10.4935 23.9029 15.1748 23.9029C17.4732 23.9029 19.558 22.988 21.0849 21.5026C21.107 21.4709 21.1322 21.4407 21.1605 21.4124C21.1888 21.3842 21.219 21.359 21.2507 21.3368C22.7361 19.81 23.6509 17.7252 23.6509 15.4267C23.6509 10.7454 19.856 6.95052 15.1748 6.95052ZM22.5666 21.8757C24.0722 20.1515 24.9843 17.8956 24.9843 15.4267C24.9843 10.0091 20.5924 5.61719 15.1748 5.61719C9.75711 5.61719 5.36523 10.0091 5.36523 15.4267C5.36523 20.8444 9.75711 25.2362 15.1748 25.2362C17.6437 25.2362 19.8995 24.3242 21.6238 22.8186L26.1319 27.3267C26.3923 27.587 26.8144 27.587 27.0747 27.3267C27.3351 27.0663 27.3351 26.6442 27.0747 26.3839L22.5666 21.8757ZM15.1748 11.3315C15.5429 11.3315 15.8414 11.63 15.8414 11.9981V14.76H18.6033C18.9715 14.76 19.27 15.0585 19.27 15.4267C19.27 15.7949 18.9715 16.0934 18.6033 16.0934H15.8414V18.8553C15.8414 19.2235 15.5429 19.5219 15.1748 19.5219C14.8066 19.5219 14.5081 19.2235 14.5081 18.8553V16.0934H11.7462C11.378 16.0934 11.0795 15.7949 11.0795 15.4267C11.0795 15.0585 11.378 14.76 11.7462 14.76H14.5081V11.9981C14.5081 11.63 14.8066 11.3315 15.1748 11.3315Z" fill="#1A1A1A"/>
</g>
</svg>
