<svg width="62" height="62" viewBox="0 0 62 62" fill="none" xmlns="http://www.w3.org/2000/svg">
<path d="M0 47.2148H56.2298V48.1791H0V47.2148Z" fill="white"/>
<path d="M4.56096 50.4755L4.53466 50.4289L2.66739 53.7376L2.62904 53.8037L2.62957 53.8047L0 58.4641H0.853583L3.05383 54.5654L5.22819 58.4641H9.06932L4.58801 50.4289L4.56096 50.4755Z" fill="white"/>
<path d="M20.9128 50.8575H17.6051V58.4641H20.9128V54.0715H24.2204V58.4641H24.8606V50.8575H24.2204V53.4287H20.9128V50.8575Z" fill="white"/>
<path d="M16.0047 50.8575V51.1445L10.1363 54.2666V50.8575H9.49611V58.4641H10.1363V58.1235L16.0047 55.0014V58.4641H16.6449V50.8575H16.0047Z" fill="white"/>
<path d="M25.2874 50.8575L32.9696 50.8575V51.5003L30.729 51.5003V58.4641H27.4213V51.5003H25.2874V50.8575Z" fill="white"/>
<path d="M36.9174 51.5003V52.7859H40.0117V53.4287H36.9174V57.8213H40.0117V58.4641H33.6098V50.8575H40.0117V51.5003L36.9174 51.5003Z" fill="white"/>
<path d="M44.493 50.8575H41.1854V58.4641H44.493V53.3721L45.3894 52.8439L48.2274 58.4641H48.9743L45.965 52.5048L48.7609 50.8575H47.4805L44.493 52.6177V50.8575Z" fill="white"/>
<path d="M51.9618 58.6355C50.0303 58.3504 48.5475 56.6795 48.5475 54.6608C48.5475 52.6421 50.0303 50.9712 51.9618 50.6861C52.1534 50.6578 52.3493 50.6432 52.5487 50.6432C53.8577 50.6432 55.0199 51.2744 55.7499 52.2502H55.051C54.4199 51.5899 53.5321 51.1789 52.5487 51.1789C52.3487 51.1789 52.1526 51.1959 51.9618 51.2285V58.0931C52.1526 58.1257 52.3487 58.1427 52.5487 58.1427C53.865 58.1427 55.01 57.4063 55.5973 56.3214H56.1931C55.5638 57.7117 54.1687 58.6784 52.5487 58.6784C52.3493 58.6784 52.1534 58.6638 51.9618 58.6355Z" fill="white"/>
<path d="M56.2298 61.0354H0V61.9996H56.2298V61.0354Z" fill="white"/>
<path d="M37.637 25.4429C36.4257 26.5373 35.09 26.9113 33.6298 26.5647C32.938 26.4004 32.2901 26.1014 31.6859 25.6677C30.799 25.0308 30.1392 24.1788 29.7065 23.1117C29.375 22.2939 29.211 21.3673 29.2146 20.332C29.2182 19.404 29.2899 18.6204 29.4299 17.9813C29.7521 16.5064 30.2891 15.1202 31.0411 13.8226C31.0419 13.8204 31.2277 13.5315 31.5987 12.9558C32.2022 12.0199 32.6273 10.9661 32.8742 9.79457C33.1289 8.58556 33.1221 7.42338 32.8537 6.30803C32.5401 5.00464 31.8678 4.0179 30.8366 3.34783C30.2325 2.95516 29.5641 2.71127 28.8314 2.61616C27.5542 2.45044 26.3612 2.77863 25.2526 3.60073C25.0833 3.7261 24.9509 3.8648 24.8554 4.01682C24.8274 3.99161 24.8296 3.9563 24.8619 3.91091C25.5687 2.9303 26.4836 2.27284 27.6066 1.93852C28.2846 1.73678 28.9724 1.67518 29.6699 1.75371C30.348 1.83009 30.9934 2.03147 31.6062 2.35786C32.844 3.01928 33.6344 4.06618 33.9774 5.49855C34.3993 7.26235 34.2347 8.97715 33.4834 10.643C33.375 10.8829 33.0998 11.3606 32.6578 12.0761C31.6331 13.7332 30.9249 15.5035 30.5331 17.3869C30.3631 18.2054 30.2823 19.088 30.2909 20.0348C30.2967 20.6638 30.3957 21.2989 30.588 21.9401C30.7825 22.5879 31.0508 23.1639 31.3931 23.6683C32.1961 24.8506 33.3176 25.5848 34.7578 25.8709C35.7085 26.0596 36.6683 25.917 37.637 25.4429Z" fill="#ABBDC2"/>
<path d="M39.6815 19.9222C39.7246 19.9193 39.7415 19.9384 39.7321 19.9794C39.5118 20.9637 39.1032 21.8596 38.5062 22.6673C38.2514 23.011 37.9404 23.2916 37.573 23.5092C37.5278 23.5359 37.5041 23.5229 37.502 23.4703C37.6821 23.3183 37.8055 23.1886 37.8722 23.0812C38.457 22.1417 38.8614 21.1283 39.0853 20.041C39.0885 20.0253 39.0963 20.0109 39.1077 20.0001C39.1191 19.9892 39.1335 19.9824 39.1488 19.9805L39.6815 19.9222Z" fill="#ABBDC2"/>
<path d="M26.0156 24.8184L25.8003 25.1426C25.8032 25.1008 25.7838 25.0813 25.7422 25.0842C25.8003 24.9553 25.8914 24.8666 26.0156 24.8184Z" fill="white"/>
<path d="M25.7421 25.0843C25.7837 25.0814 25.8031 25.1008 25.8002 25.1426C25.2053 26.0533 24.376 27.0672 23.6017 27.8317C23.4496 27.8915 23.396 27.7148 23.1513 27.6543C23.1075 27.6428 23.1036 27.6233 23.1395 27.596C24.0881 26.8473 24.9556 26.0101 25.7421 25.0843Z" fill="#ABBDC2"/>
<path d="M39.1442 30.5137C39.198 30.523 39.2142 30.5493 39.1927 30.5926C39.1733 30.6308 39.1622 30.6542 39.1593 30.6628C38.8737 31.5879 38.4496 32.4428 37.8871 33.2275C37.8368 33.2974 37.797 33.2948 37.7676 33.2199C38.1479 32.4144 38.3926 31.5584 38.5016 30.652C38.5052 30.6222 38.521 30.5945 38.5462 30.5739C38.5715 30.5533 38.6045 30.5412 38.6394 30.5396L39.1442 30.5137Z" fill="#ABBDC2"/>
<path d="M22.2443 2.6582C22.2587 2.66253 22.2676 2.67117 22.2712 2.68414C22.2735 2.69146 22.2724 2.70057 22.2682 2.71036C22.264 2.72015 22.2569 2.73019 22.2476 2.73926C20.6495 4.28907 19.6597 6.17968 19.2779 8.41109C19.161 9.09269 19.1068 9.76708 19.1154 10.4343C19.124 11.0935 19.2072 11.7611 19.3651 12.4369C19.6026 13.4507 19.9725 14.4324 20.4748 15.382C20.8996 16.1839 21.3248 16.9019 21.7503 17.5359C22.249 18.2795 22.7161 19.0411 23.1517 19.8207C23.6059 20.6327 23.8847 21.2927 23.988 21.8006C24.1911 22.8 24.0669 23.7954 23.6156 24.7868C23.3831 25.2969 23.1169 25.7876 22.8169 26.2588C22.5615 26.6601 22.2289 27.1046 21.8192 27.5924C20.491 29.1761 18.9629 30.6229 17.235 31.9328C17.21 31.9519 17.1908 31.9776 17.1794 32.007C17.168 32.0364 17.1649 32.0683 17.1705 32.0992C17.2049 32.2937 17.2874 32.4886 17.418 32.6839C17.4216 32.6893 17.4264 32.6939 17.432 32.6972C17.4375 32.7006 17.4438 32.7028 17.4504 32.7035C17.4569 32.7042 17.4635 32.7035 17.4698 32.7014C17.4762 32.6993 17.482 32.6959 17.4869 32.6915C18.1951 32.0315 18.9827 31.6496 19.8495 31.5458C20.2262 31.5005 20.6187 31.6017 21.027 31.8495C21.408 32.0808 21.9216 32.2545 22.3105 32.6839C22.619 33.0247 22.728 33.282 22.7351 33.2892C23.213 33.7957 23.6052 34.3814 24.0709 34.8994C24.4756 35.349 24.9032 35.7756 25.3539 36.1791C26.6534 37.3427 28.1889 38.079 29.9606 38.3881C30.8001 38.5344 31.62 38.5917 32.42 38.56C33.2058 38.529 33.9165 38.4375 34.5523 38.2855C35.7793 37.9937 36.8499 37.4111 37.7641 36.5379C37.8982 36.4089 38.0066 36.33 38.0891 36.3012C37.1276 37.9756 35.7567 39.0654 33.9764 39.5705C32.4042 40.0165 30.742 40.0849 28.9897 39.7758C27.2324 39.466 25.7367 38.6691 24.5025 37.3852C23.8481 36.7043 23.2859 36.0796 22.8159 35.5112C22.2727 34.8526 21.7345 34.2582 21.2013 33.7279C20.5864 33.1169 19.8502 32.9098 18.9927 33.1065C18.1431 33.301 17.371 33.6832 16.6764 34.2531C16.6712 34.2575 16.6651 34.2605 16.6586 34.2622C16.6521 34.2638 16.6452 34.264 16.6386 34.2626C16.632 34.2613 16.6258 34.2585 16.6204 34.2544C16.615 34.2503 16.6106 34.2451 16.6075 34.2391L15.9284 32.9454C15.9077 32.9062 15.9013 32.861 15.9101 32.8176C15.9189 32.7742 15.9425 32.7353 15.9768 32.7077C17.8927 31.1521 19.6389 29.4567 21.2153 27.6216C21.5504 27.2311 21.8676 26.7991 22.1668 26.3258C22.5514 25.7177 22.8033 25.2468 22.9224 24.9132C23.2324 24.0443 23.17 23.1458 22.7351 22.2178C22.4094 21.5211 22.0682 20.8975 21.7115 20.347C21.4367 19.9233 21.2979 19.709 21.295 19.704C20.9197 19.1038 20.5462 18.5025 20.1745 17.9002C19.7167 17.158 19.3185 16.3849 18.9798 15.5809C18.4029 14.209 18.1277 12.7399 18.1542 11.1735C18.1786 9.74907 18.3982 8.41001 18.8129 7.15633C19.443 5.25851 20.5868 3.75914 22.2443 2.6582Z" fill="#ABBDC2"/>
<path d="M37.5016 23.4715C38.8325 22.7118 39.5068 20.7805 39.855 19.2695C40.1205 19.1715 40.4458 19.1802 40.6726 19.2436C40.6868 19.2476 40.6991 19.2568 40.7072 19.2695C40.7153 19.2822 40.7187 19.2975 40.7167 19.3128C40.5696 20.3971 40.3252 21.4148 39.9837 22.3659C39.5302 23.629 38.7477 24.655 37.6362 25.4439C36.6675 25.918 35.7078 26.0607 34.757 25.8719C33.3168 25.5859 32.1953 24.8517 31.3923 23.6693C31.0501 23.1649 30.7817 22.5889 30.5872 21.9412C30.3949 21.2999 30.2959 20.6648 30.2902 20.0358C30.2816 19.089 30.3623 18.2064 30.5323 17.3879C30.9241 15.5045 31.6324 13.7342 32.657 12.0771C33.0991 11.3616 33.3742 10.8839 33.4826 10.644C34.2339 8.97818 34.3986 7.26337 33.9766 5.49957C33.6336 4.0672 32.8432 3.02031 31.6055 2.35888C30.3811 1.70679 28.9374 1.54338 27.6058 1.93955C25.5239 2.55932 24.2117 4.33295 24.0474 6.47225C23.9043 8.33026 24.3462 10.1237 25.2841 11.7161C25.7756 12.5526 26.1506 13.2205 26.4089 13.7198C27.2568 15.362 27.9193 17.1848 27.9868 19.0469C28.0323 20.3117 27.8809 21.5592 27.3335 22.7118C26.4008 24.7868 24.7485 26.3264 23.14 27.5957C23.1042 27.6231 23.1081 27.6425 23.1519 27.6541C23.4541 27.7288 23.7504 27.7038 24.0528 27.7513C24.22 27.7773 24.305 27.7906 24.3079 27.7913C25.799 28.1307 27.0375 28.8897 28.0234 30.0685C29.1646 31.4342 30.2242 32.8451 31.7852 33.756C33.6072 34.8186 36.3555 35.1278 37.7664 33.2211C38.3482 32.5327 38.8325 31.452 39.1431 30.5148L39.4165 29.1996C39.4198 29.1832 39.4281 29.1685 39.4401 29.158C39.4521 29.1476 39.467 29.142 39.4821 29.1423L40.3141 29.1639C40.3373 29.1645 40.3594 29.1747 40.376 29.1923C40.3926 29.21 40.4024 29.2338 40.4035 29.259C40.4164 29.6142 40.411 29.9507 40.3873 30.2684C40.3679 30.535 40.3328 30.8686 40.2818 31.2692C40.0436 33.1548 39.3128 34.8321 38.0893 36.3012C38.0068 36.33 37.8985 36.4089 37.7643 36.5379C36.8501 37.4112 35.7795 37.9937 34.5525 38.2855C33.9167 38.4375 33.206 38.529 32.4202 38.56C31.6202 38.5917 30.8004 38.5344 29.9608 38.3882C28.1892 38.0791 26.6536 37.3427 25.3541 36.1791C24.9035 35.7756 24.4758 35.3491 24.0711 34.8995C23.1479 33.8725 22.2238 32.5759 21.0272 31.8496C20.6189 31.6017 20.2264 31.5005 19.8497 31.5459C18.9829 31.6496 18.1953 32.0315 17.4871 32.6915C17.4822 32.696 17.4764 32.6994 17.4701 32.7015C17.4638 32.7035 17.4571 32.7042 17.4506 32.7035C17.444 32.7028 17.4378 32.7007 17.4322 32.6973C17.4266 32.6939 17.4218 32.6894 17.4182 32.6839C17.2876 32.4887 17.2051 32.2938 17.1707 32.0992C17.1651 32.0683 17.1682 32.0364 17.1796 32.007C17.191 31.9777 17.2102 31.952 17.2352 31.9328C18.9631 30.6229 20.4912 29.1761 21.8194 27.5925C22.5398 26.7348 23.1502 25.8085 23.6158 24.7868C24.0671 23.7954 24.1913 22.8 23.9882 21.8007C23.6158 20.3742 22.526 18.8071 21.7505 17.536C19.9146 14.8004 18.5973 12.0771 19.2781 8.41114C19.875 5.19743 21.2034 3.73048 22.2445 2.65825C24.1943 0.650316 26.8972 -0.0937298 29.5626 0.00930828C31.3091 0.0770359 32.9721 0.516185 34.5514 1.32675C36.0109 2.07536 37.149 3.13162 37.9656 4.49554C39.0493 6.30508 39.3129 8.46094 38.9547 10.5251C38.7064 11.956 38.2422 13.3452 37.5619 14.6925C37.0797 15.6486 36.6797 16.4091 36.3618 16.974C35.7878 17.9964 35.3088 18.9471 34.9249 19.8261C34.7534 20.2195 34.6379 20.668 34.5783 21.1717C34.4915 21.9015 34.7118 22.5147 35.2392 23.0111C35.8922 23.6272 36.8951 23.8178 37.5016 23.4715Z" fill="white"/>
<path fill-rule="evenodd" clip-rule="evenodd" d="M56.8181 41.7359V45.5681H57.5886V43.9683H57.7448C57.9219 43.9683 58.0512 43.9831 58.1327 44.0127C58.2143 44.0406 58.2915 44.0938 58.3644 44.1722C58.4373 44.2489 58.5727 44.4362 58.7706 44.7342L59.3277 45.5681H60.2493L59.7833 44.8205C59.5993 44.5225 59.4526 44.3151 59.3433 44.1983C59.2357 44.0816 59.0986 43.9744 58.932 43.8768C59.2669 43.828 59.5186 43.7104 59.6869 43.5239C59.8553 43.3357 59.9395 43.0978 59.9395 42.8103C59.9395 42.5837 59.8839 42.3824 59.7728 42.2064C59.6618 42.0304 59.5134 41.9084 59.3277 41.8405C59.1437 41.7708 58.8478 41.7359 58.4399 41.7359H56.8181ZM58.1588 43.3566H57.5886V42.3842H58.19C58.5024 42.3842 58.6899 42.3885 58.7523 42.3973C58.8773 42.4182 58.9736 42.4687 59.0413 42.5489C59.1107 42.6273 59.1454 42.731 59.1454 42.8599C59.1454 42.975 59.1194 43.0708 59.0673 43.1475C59.0153 43.2242 58.9432 43.2782 58.8513 43.3096C58.7593 43.3409 58.5284 43.3566 58.1588 43.3566Z" fill="white"/>
<path fill-rule="evenodd" clip-rule="evenodd" d="M61.9993 43.673C61.9993 45.721 60.3459 47.3812 58.3063 47.3812C56.2667 47.3812 54.6133 45.721 54.6133 43.673C54.6133 41.625 56.2667 39.9648 58.3063 39.9648C60.3459 39.9648 61.9993 41.625 61.9993 43.673ZM61.3378 43.673C61.3378 45.3542 59.9806 46.717 58.3063 46.717C56.632 46.717 55.2747 45.3542 55.2747 43.673C55.2747 41.9918 56.632 40.629 58.3063 40.629C59.9806 40.629 61.3378 41.9918 61.3378 43.673Z" fill="white"/>
</svg>
